<svg id="arrow.left.on" xmlns="http://www.w3.org/2000/svg" width="3300" height="2200" viewBox="0 0 3300 2200">
  <g id="Notes">
    <rect id="artboard" width="3300" height="2200" fill="#fff"/>
    <line id="Line_9" data-name="Line 9" x2="2773" transform="translate(263 292)" fill="none" stroke="#000" stroke-width="0.5"/>
    <text id="Weight_Scale_Variations" data-name="Weight/Scale Variations" transform="translate(263 322)" font-size="20" font-family="Helvetica-Bold, Helvetica" font-weight="700"><tspan x="0" y="0">Weight/Scale Variations</tspan></text>
    <text id="Ultralight" transform="translate(559.711 322)" font-size="20" font-family="Helvetica"><tspan x="-39.458" y="0">Ultralight</tspan></text>
    <text id="Thin" transform="translate(856.422 322)" font-size="20" font-family="Helvetica"><tspan x="-19.453" y="0">Thin</tspan></text>
    <text id="Light" transform="translate(1153.13 322)" font-size="20" font-family="Helvetica"><tspan x="-21.685" y="0">Light</tspan></text>
    <text id="Regular" transform="translate(1449.84 322)" font-size="20" font-family="Helvetica"><tspan x="-35.02" y="0">Regular</tspan></text>
    <text id="Medium" transform="translate(1746.56 322)" font-size="20" font-family="Helvetica"><tspan x="-35.566" y="0">Medium</tspan></text>
    <text id="Semibold" transform="translate(2043.27 322)" font-size="20" font-family="Helvetica"><tspan x="-41.689" y="0">Semibold</tspan></text>
    <text id="Bold" transform="translate(2339.98 322)" font-size="20" font-family="Helvetica"><tspan x="-20.015" y="0">Bold</tspan></text>
    <text id="Heavy" transform="translate(2636.69 322)" font-size="20" font-family="Helvetica"><tspan x="-28.345" y="0">Heavy</tspan></text>
    <text id="Black" transform="translate(2933.4 322)" font-size="20" font-family="Helvetica"><tspan x="-24.453" y="0">Black</tspan></text>
    <line id="Line_10" data-name="Line 10" x2="2773" transform="translate(263 1903)" fill="none" stroke="#000" stroke-width="0.5"/>
    <g id="Group_11" data-name="Group 11" transform="translate(263 1933)">
      <path id="Path_74" data-name="Path 74" d="M9.248.83a7.949,7.949,0,0,0,7.891-7.881,7.957,7.957,0,0,0-7.9-7.881A7.938,7.938,0,0,0,1.367-7.051,7.947,7.947,0,0,0,9.248.83Zm0-1.484a6.358,6.358,0,0,1-6.377-6.4,6.35,6.35,0,0,1,6.367-6.4,6.383,6.383,0,0,1,6.406,6.4A6.362,6.362,0,0,1,9.248-.654Zm-.02-2.969c.469,0,.742-.312.742-.83V-6.318H12c.5,0,.83-.254.83-.723s-.312-.742-.83-.742H9.971V-9.814c0-.518-.273-.84-.742-.84s-.723.342-.723.84v2.031H6.494c-.518,0-.85.264-.85.742s.352.723.85.723H8.506v1.865C8.506-3.955,8.76-3.623,9.229-3.623Z"/>
    </g>
    <g id="Group_12" data-name="Group 12" transform="translate(281.506 1933)">
      <path id="Path_75" data-name="Path 75" d="M11.709,2.91A10.035,10.035,0,0,0,21.67-7.051,10.037,10.037,0,0,0,11.7-17.012,10.026,10.026,0,0,0,1.748-7.051,10.041,10.041,0,0,0,11.709,2.91Zm0-1.66a8.261,8.261,0,0,1-8.291-8.3,8.252,8.252,0,0,1,8.281-8.3,8.284,8.284,0,0,1,8.311,8.3A8.263,8.263,0,0,1,11.709,1.25ZM11.68-2.666c.527,0,.83-.352.83-.928V-6.23h2.813c.547,0,.928-.283.928-.8a.814.814,0,0,0-.928-.83H12.51v-2.822a.814.814,0,0,0-.83-.928c-.518,0-.8.381-.8.928v2.822h-2.8a.822.822,0,0,0-.937.83c0,.518.391.8.938.8h2.8v2.637C10.879-3.037,11.162-2.666,11.68-2.666Z"/>
    </g>
    <g id="Group_13" data-name="Group 13" transform="translate(304.924 1933)">
      <path id="Path_76" data-name="Path 76" d="M14.971,5.664A12.806,12.806,0,0,0,27.7-7.051,12.817,12.817,0,0,0,14.961-19.775,12.8,12.8,0,0,0,2.256-7.051,12.8,12.8,0,0,0,14.971,5.664Zm0-1.816A10.87,10.87,0,0,1,4.082-7.051a10.855,10.855,0,0,1,10.879-10.9,10.88,10.88,0,0,1,10.908,10.9A10.865,10.865,0,0,1,14.971,3.848Zm-.029-5.234a.889.889,0,0,0,.918-1v-3.75h3.916a.891.891,0,0,0,1.006-.889.893.893,0,0,0-1.006-.918H15.859v-3.926a.893.893,0,0,0-.918-1.006.886.886,0,0,0-.889,1.006v3.926H10.146a.9.9,0,0,0-1.016.918.9.9,0,0,0,1.016.889h3.906v3.75A.883.883,0,0,0,14.941-1.387Z"/>
    </g>
    <text id="Design_Variations" data-name="Design Variations" transform="translate(263 1953)" font-size="20" font-family="Helvetica-Bold, Helvetica" font-weight="700"><tspan x="0" y="0">Design Variations</tspan></text>
    <text id="Symbols_are_supported_in_up_to_nine_weights_and_three_scales." data-name="Symbols are supported in up to nine weights and three scales." transform="translate(263 1971)" font-size="20" font-family="Helvetica"><tspan x="0" y="0">Symbols are supported in up to nine weights and three scales.</tspan></text>
    <text id="For_optimal_layout_with_text_and_other_symbols_vertically_align" data-name="For optimal layout with text and other symbols, vertically align" transform="translate(263 1989)" font-size="20" font-family="Helvetica"><tspan x="0" y="0">For optimal layout with text and other symbols, vertically align</tspan></text>
    <text id="symbols_with_the_adjacent_text." data-name="symbols with the adjacent text." transform="translate(263 2007)" font-size="20" font-family="Helvetica"><tspan x="0" y="0">symbols with the adjacent text.</tspan></text>
    <line id="Line_11" data-name="Line 11" y2="14" transform="translate(776 1919)" fill="none" stroke="#00aeef" stroke-width="0.5"/>
    <g id="Group_14" data-name="Group 14" transform="translate(776 1933)">
      <path id="Path_77" data-name="Path 77" d="M3.311.127a.887.887,0,0,0,.957-.732l1.26-3.457h5.762l1.26,3.457A.884.884,0,0,0,13.5.127a.773.773,0,0,0,.85-.8,1.447,1.447,0,0,0-.107-.527L9.658-13.389a1.225,1.225,0,0,0-1.25-.9,1.212,1.212,0,0,0-1.23.889L2.6-1.191a1.447,1.447,0,0,0-.107.527A.747.747,0,0,0,3.311.127Zm2.7-5.664,2.373-6.572h.049L10.8-5.537Z"/>
    </g>
    <line id="Line_12" data-name="Line 12" y2="14" transform="translate(792.836 1919)" fill="none" stroke="#00aeef" stroke-width="0.5"/>
    <text id="Margins" transform="translate(776 1953)" font-size="20" font-family="Helvetica-Bold, Helvetica" font-weight="700"><tspan x="0" y="0">Margins</tspan></text>
    <text id="Leading_and_trailing_margins_on_the_left_and_right_side_of_each_symbol" data-name="Leading and trailing margins on the left and right side of each symbol" transform="translate(776 1971)" font-size="20" font-family="Helvetica"><tspan x="0" y="0">Leading and trailing margins on the left and right side of each symbol</tspan></text>
    <text id="can_be_adjusted_by_modifying_the_x-location_of_the_margin_guidelines." data-name="can be adjusted by modifying the x-location of the margin guidelines." transform="translate(776 1989)" font-size="20" font-family="Helvetica"><tspan x="0" y="0">can be adjusted by modifying the x-location of the margin guidelines.</tspan></text>
    <text id="Modifications_are_automatically_applied_proportionally_to_all" data-name="Modifications are automatically applied proportionally to all" transform="translate(776 2007)" font-size="20" font-family="Helvetica"><tspan x="0" y="0">Modifications are automatically applied proportionally to all</tspan></text>
    <text id="scales_and_weights." data-name="scales and weights." transform="translate(776 2025)" font-size="20" font-family="Helvetica"><tspan x="0" y="0">scales and weights.</tspan></text>
    <g id="Group_15" data-name="Group 15" transform="translate(1289 1933)">
      <path id="Path_78" data-name="Path 78" d="M2.842,1.865l1.7,1.709c.859.869,1.846.811,2.773-.215L17.49-7.852a1.661,1.661,0,0,0,.85.01l1.065-.2.664.674-.039.557a1.551,1.551,0,0,0,.576,1.357l.762.742a1.038,1.038,0,0,0,1.563.039l2.91-2.92a1.016,1.016,0,0,0-.029-1.543l-.771-.762a1.569,1.569,0,0,0-1.328-.6l-.576.049-.645-.635.244-1.123a1.581,1.581,0,0,0-.615-1.592l-2.2-2.187c-3.34-3.32-7.773-3.242-10.664-.352a1.123,1.123,0,0,0-.215,1.377,1.154,1.154,0,0,0,1.338.43,5.408,5.408,0,0,1,4.414.537l-.586,1.455a1.7,1.7,0,0,0-.1,1.24L3.047-.9C2.061.02,1.982,1,2.842,1.865Zm7.91-17.822a6.056,6.056,0,0,1,7.949.752l2.432,2.412a.708.708,0,0,1,.205.762l-.322,1.484,1.5,1.484.986-.059a.542.542,0,0,1,.527.205l.576.576L22.168-5.9l-.576-.576a.557.557,0,0,1-.215-.537l.068-.977L19.951-9.473l-1.524.254a.641.641,0,0,1-.713-.2l-2-2c-.254-.234-.283-.4-.127-.771l.879-2.09a5.759,5.759,0,0,0-5.625-1.484C10.684-15.723,10.625-15.85,10.752-15.957ZM5.273,2.3,4.1,1.143C3.633.684,3.74.342,4.141-.02L14.951-10.2l1.465,1.484L6.426,2.275C6.074,2.676,5.742,2.773,5.273,2.3Z"/>
    </g>
    <text id="Exporting" transform="translate(1289 1953)" font-size="20" font-family="Helvetica-Bold, Helvetica" font-weight="700"><tspan x="0" y="0">Exporting</tspan></text>
    <text id="Symbols_should_be_outlined_when_exporting_to_ensure_the" data-name="Symbols should be outlined when exporting to ensure the" transform="translate(1289 1971)" font-size="20" font-family="Helvetica"><tspan x="0" y="0">Symbols should be outlined when exporting to ensure the</tspan></text>
    <text id="design_is_preserved_when_submitting_to_Xcode." data-name="design is preserved when submitting to Xcode." transform="translate(1289 1989)" font-size="20" font-family="Helvetica"><tspan x="0" y="0">design is preserved when submitting to Xcode.</tspan></text>
    <text id="template-version" transform="translate(3036 1933)" font-size="20" font-family="Helvetica"><tspan x="-128.594" y="0">Template v.2.0</tspan></text>
    <text id="Requires_Xcode_12_or_greater" data-name="Requires Xcode 12 or greater" transform="translate(3036 1951)" font-size="20" font-family="Helvetica"><tspan x="-262.373" y="0">Requires Xcode 12 or greater</tspan></text>
    <text id="Generated_from_arrow.left" data-name="Generated from arrow.left" transform="translate(3036 1969)" font-size="20" font-family="Helvetica"><tspan x="-226.777" y="0">Generated from arrow.left</tspan></text>
    <text id="Typeset_at_100_points" data-name="Typeset at 100 points" transform="translate(3036 1987)" font-size="20" font-family="Helvetica"><tspan x="-190.137" y="0">Typeset at 100 points</tspan></text>
    <text id="Small" transform="translate(263 726)" font-size="20" font-family="Helvetica"><tspan x="0" y="0">Small</tspan></text>
    <text id="Medium-2" data-name="Medium" transform="translate(263 1156)" font-size="20" font-family="Helvetica"><tspan x="0" y="0">Medium</tspan></text>
    <text id="Large" transform="translate(263 1586)" font-size="20" font-family="Helvetica"><tspan x="0" y="0">Large</tspan></text>
  </g>
  <g id="Guides">
    <g id="H-reference" transform="translate(339 696)">
      <path id="Path_79" data-name="Path 79" d="M.977,0H3.662l9.326-24.463H45.752L55.127,0h2.637L30.615-70.459h-2.49ZM29.346-67.139h.1l15.43,40.43H13.867Z" fill="#27aae1"/>
    </g>
    <line id="Baseline-S" x2="2773" transform="translate(263 696)" fill="none" stroke="#27aae1" stroke-width="0.5"/>
    <line id="Capline-S" x2="2773" transform="translate(263 625.541)" fill="none" stroke="#27aae1" stroke-width="0.5"/>
    <g id="H-reference-2" data-name="H-reference" transform="translate(339 1126)">
      <path id="Path_80" data-name="Path 80" d="M.977,0H3.662l9.326-24.463H45.752L55.127,0h2.637L30.615-70.459h-2.49ZM29.346-67.139h.1l15.43,40.43H13.867Z" fill="#27aae1"/>
    </g>
    <line id="Baseline-M" x2="2773" transform="translate(263 1126)" fill="none" stroke="#27aae1" stroke-width="0.5"/>
    <line id="Capline-M" x2="2773" transform="translate(263 1055.54)" fill="none" stroke="#27aae1" stroke-width="0.5"/>
    <g id="H-reference-3" data-name="H-reference" transform="translate(339 1556)">
      <path id="Path_81" data-name="Path 81" d="M.977,0H3.662l9.326-24.463H45.752L55.127,0h2.637L30.615-70.459h-2.49ZM29.346-67.139h.1l15.43,40.43H13.867Z" fill="#27aae1"/>
    </g>
    <line id="Baseline-L" x2="2773" transform="translate(263 1556)" fill="none" stroke="#27aae1" stroke-width="0.5"/>
    <line id="Capline-L" x2="2773" transform="translate(263 1485.54)" fill="none" stroke="#27aae1" stroke-width="0.5"/>
  </g>
  <g id="Symbols">
    <g id="Black-L" transform="translate(2854.32 1556)">
      <path id="Path_82" data-name="Path 82" d="M16.065-35.547a12.37,12.37,0,0,0,3.369,8.4L59.912,13.232a11.47,11.47,0,0,0,7.91,3.516c6.787,0,11.279-4.639,11.279-10.742a11.057,11.057,0,0,0-3.76-8.2L62.061-15.43,51.855-24.8l13.037.684h65.185c7.227,0,12.012-4.59,12.012-11.426,0-6.885-4.785-11.426-12.012-11.426H64.893l-13.037.684,10.205-9.424L75.342-68.994a10.949,10.949,0,0,0,3.76-8.154c0-6.152-4.492-10.791-11.279-10.791a11.325,11.325,0,0,0-7.91,3.564L19.434-43.945A12.278,12.278,0,0,0,16.065-35.547Z"/>
    </g>
    <g id="Heavy-L" transform="translate(2558.69 1556)">
      <path id="Path_83" data-name="Path 83" d="M16.065-35.5a10.432,10.432,0,0,0,2.978,7.275L59.912,12.6a9.9,9.9,0,0,0,6.836,3.027c5.811,0,9.717-4,9.717-9.326A9.668,9.668,0,0,0,73.34-.732L59.131-14.941,46.68-26.367l13.477.732h69.532c6.152,0,10.253-3.955,10.253-9.863s-4.1-9.863-10.253-9.863H60.156l-13.428.732,12.4-11.426L73.34-70.312a9.584,9.584,0,0,0,3.125-7.031c0-5.322-3.906-9.326-9.717-9.326a9.809,9.809,0,0,0-6.885,3.125l-40.82,40.82A10.315,10.315,0,0,0,16.065-35.5Z"/>
    </g>
    <g id="Bold-L" transform="translate(2263.17 1556)">
      <path id="Path_84" data-name="Path 84" d="M16.065-35.4a8.468,8.468,0,0,0,2.49,5.957L59.912,11.865A8.145,8.145,0,0,0,65.576,14.4a7.555,7.555,0,0,0,7.959-7.715A7.8,7.8,0,0,0,71.045.928L55.811-14.356,40.918-28.076l13.965.732h74.365c4.932,0,8.3-3.271,8.3-8.057,0-4.834-3.369-8.106-8.3-8.106H54.883l-13.916.733L55.811-56.445,71.045-71.777a7.8,7.8,0,0,0,2.49-5.762,7.555,7.555,0,0,0-7.959-7.715,8.356,8.356,0,0,0-5.811,2.637L18.555-41.406A8.671,8.671,0,0,0,16.065-35.4Z"/>
    </g>
    <g id="Semibold-L" transform="translate(1967.27 1556)">
      <path id="Path_85" data-name="Path 85" d="M16.065-35.352a7.029,7.029,0,0,0,2.2,5.078l41.65,41.65a6.962,6.962,0,0,0,4.883,2.148,6.453,6.453,0,0,0,6.738-6.592,6.894,6.894,0,0,0-2.051-4.883L53.564-13.965l-16.6-15.283,14.307.732h77.637c4.151,0,7.032-2.783,7.032-6.836a6.653,6.653,0,0,0-7.032-6.885H51.27l-14.258.781L53.564-56.738,69.482-72.8a6.7,6.7,0,0,0,2.051-4.883,6.453,6.453,0,0,0-6.738-6.592,7.092,7.092,0,0,0-5.078,2.344L18.262-40.43A6.947,6.947,0,0,0,16.065-35.352Z"/>
    </g>
    <g id="Medium-L" transform="translate(1671.16 1556)">
      <path id="Path_86" data-name="Path 86" d="M16.065-35.3a6.008,6.008,0,0,0,1.953,4.395L59.912,10.986a5.9,5.9,0,0,0,4.248,1.855A5.635,5.635,0,0,0,70.02,7.129a6.189,6.189,0,0,0-1.709-4.248L51.855-13.672l-17.92-16.5,14.551.781h80.225a5.718,5.718,0,0,0,6.006-5.908,5.73,5.73,0,0,0-6.006-5.957H48.486l-14.5.781,17.871-16.5L68.311-73.535a6.061,6.061,0,0,0,1.709-4.248A5.635,5.635,0,0,0,64.16-83.5a6.221,6.221,0,0,0-4.492,2.051l-41.65,41.7A6.114,6.114,0,0,0,16.065-35.3Z"/>
    </g>
    <g id="Regular-L" transform="translate(1375.28 1556)">
      <path id="Subtraction_6" data-name="Subtraction 6" d="M-11942.28-3412h-152a29.811,29.811,0,0,1-11.677-2.357,29.917,29.917,0,0,1-9.538-6.429,29.925,29.925,0,0,1-6.43-9.535,29.805,29.805,0,0,1-2.357-11.677v-91a29.805,29.805,0,0,1,2.357-11.677,29.925,29.925,0,0,1,6.43-9.535,29.921,29.921,0,0,1,9.538-6.429,29.811,29.811,0,0,1,11.677-2.357h152a29.811,29.811,0,0,1,11.677,2.357,29.916,29.916,0,0,1,9.536,6.429,29.9,29.9,0,0,1,6.429,9.535,29.805,29.805,0,0,1,2.357,11.677v91a29.805,29.805,0,0,1-2.357,11.677,29.9,29.9,0,0,1-6.429,9.535,29.916,29.916,0,0,1-9.536,6.429A29.811,29.811,0,0,1-11942.28-3412Zm-105.016-100.677a6.545,6.545,0,0,0-4.008,1.467l-23.533,19.188a5.424,5.424,0,0,0-2.106,4.218,5.331,5.331,0,0,0,2.106,4.132l23.533,19.142a6.539,6.539,0,0,0,4.008,1.464,5.428,5.428,0,0,0,3.886-1.4,5.119,5.119,0,0,0,1.433-3.778v-13.8c3.136,0,8.328,0,15.433,0,10.812,0,26.557,0,44.336,0h15.517a7.023,7.023,0,0,0,4.853-1.775,6.11,6.11,0,0,0,1.887-4.523,6.056,6.056,0,0,0-1.851-4.54,6.955,6.955,0,0,0-4.889-1.758h-14.6l-2.289.006-.8,0c-8.065.023-29.489.084-44.908.084-5.693,0-9.963-.009-12.689-.026V-3507.5a5.123,5.123,0,0,0-1.433-3.78A5.424,5.424,0,0,0-12047.3-3512.677Z" transform="translate(12093.001 3452)"/>
    </g>
    <g id="Light-L" transform="translate(1078.57 1556)">
      <path id="Path_88" data-name="Path 88" d="M16.065-35.254a3.643,3.643,0,0,0,1.172,2.637L59.961,10.205a3.485,3.485,0,0,0,2.588,1.123,3.43,3.43,0,0,0,3.516-3.467,3.5,3.5,0,0,0-.977-2.539L43.848-16.065,26.611-32.324l14.307.586H129.59a3.373,3.373,0,0,0,3.467-3.516,3.386,3.386,0,0,0-3.467-3.565H40.918l-14.307.586L43.848-54.443,65.088-75.83a3.571,3.571,0,0,0,.977-2.588,3.39,3.39,0,0,0-3.516-3.418,4.089,4.089,0,0,0-3.027,1.465L17.236-37.891A3.488,3.488,0,0,0,16.065-35.254Z"/>
    </g>
    <g id="Thin-L" transform="translate(781.862 1556)">
      <path id="Path_89" data-name="Path 89" d="M16.065-35.254a1.759,1.759,0,0,0,.635,1.416L60.059,9.814a1.878,1.878,0,0,0,1.416.586,1.93,1.93,0,0,0,2-1.9,2.2,2.2,0,0,0-.537-1.514L36.23-19.727,22.119-33.545l13.525.244h95.507a1.918,1.918,0,0,0,1.905-1.953,1.918,1.918,0,0,0-1.905-1.953H35.645l-13.525.244L36.23-50.781,62.939-77.539A1.95,1.95,0,0,0,63.477-79a1.94,1.94,0,0,0-2-1.953c-.586,0-1.172.2-2.1,1.221L16.7-36.719A1.927,1.927,0,0,0,16.065-35.254Z"/>
    </g>
    <g id="Ultralight-L" transform="translate(485.151 1556)">
      <path id="Path_90" data-name="Path 90" d="M16.065-35.254a1.071,1.071,0,0,0,.342.83L60.059,9.57a1.143,1.143,0,0,0,.879.391,1.2,1.2,0,0,0,1.221-1.172,1.49,1.49,0,0,0-.293-.928L32.373-21.631,19.824-34.18l13.086.049h99.024a1.136,1.136,0,0,0,1.123-1.123,1.147,1.147,0,0,0-1.123-1.172H32.91l-13.086.049L32.373-48.926,61.865-78.369a1.372,1.372,0,0,0,.293-.977,1.16,1.16,0,0,0-1.221-1.123c-.391,0-.83.1-1.66,1.025L16.406-36.084A1.006,1.006,0,0,0,16.065-35.254Z"/>
    </g>
    <g id="Black-M" transform="translate(2870.68 1126)">
      <path id="Path_91" data-name="Path 91" d="M12.451-35.6a11.333,11.333,0,0,0,2.979,7.568L46.484,2.979A10.275,10.275,0,0,0,53.564,6.2C59.814,6.2,63.77,2,63.77-3.516A9.953,9.953,0,0,0,60.3-10.937L48.975-22.021l-3.857-3.662,9.375.439H102c6.592,0,10.986-4.1,10.986-10.352S108.594-45.947,102-45.947H54.492l-9.375.439,3.857-3.613L60.3-60.3a9.871,9.871,0,0,0,3.467-7.422c0-5.469-3.955-9.717-10.205-9.717a10.275,10.275,0,0,0-7.08,3.223L15.43-43.164A11.43,11.43,0,0,0,12.451-35.6Z"/>
    </g>
    <g id="Heavy-M" transform="translate(2575.14 1126)">
      <path id="Path_92" data-name="Path 92" d="M12.451-35.5a9.711,9.711,0,0,0,2.588,6.543L46.484,2.393a8.8,8.8,0,0,0,6.1,2.783c5.371,0,8.838-3.662,8.838-8.4A8.732,8.732,0,0,0,58.5-9.668L47.266-20.752l-6.787-6.3,9.912.488h50.83c5.664,0,9.424-3.565,9.424-8.936s-3.76-8.936-9.424-8.936H50.391l-9.912.488,6.787-6.3L58.5-61.377a8.816,8.816,0,0,0,2.93-6.445c0-4.736-3.467-8.4-8.838-8.4a9,9,0,0,0-6.152,2.783l-31.4,31.4A9.711,9.711,0,0,0,12.451-35.5Z"/>
    </g>
    <g id="Bold-M" transform="translate(2279.72 1126)">
      <path id="Path_93" data-name="Path 93" d="M12.451-35.4A7.783,7.783,0,0,0,14.7-30.029L46.436,1.709A7.273,7.273,0,0,0,51.563,4a6.864,6.864,0,0,0,7.227-6.982,7.29,7.29,0,0,0-2.344-5.273L45.361-19.336,35.254-28.613l10.547.537h54.59c4.589,0,7.666-2.93,7.666-7.324s-3.077-7.373-7.666-7.373H45.8l-10.547.586,10.107-9.326L56.445-62.646a7.122,7.122,0,0,0,2.344-5.273c0-3.955-2.93-6.934-7.227-6.934a7.326,7.326,0,0,0-5.176,2.344L14.7-40.82A7.809,7.809,0,0,0,12.451-35.4Z"/>
    </g>
    <g id="Semibold-M" transform="translate(1983.92 1126)">
      <path id="Path_94" data-name="Path 94" d="M12.451-35.352A6.67,6.67,0,0,0,14.4-30.713L46.436,1.221A6.144,6.144,0,0,0,50.83,3.174a5.85,5.85,0,0,0,6.152-5.957,6.339,6.339,0,0,0-1.9-4.492L44.043-18.359l-12.4-11.377,10.986.635H99.854a6.011,6.011,0,0,0,6.4-6.25,6.011,6.011,0,0,0-6.4-6.25H42.627l-10.986.586,12.4-11.328L55.078-63.477a6.145,6.145,0,0,0,1.9-4.492,5.878,5.878,0,0,0-6.152-5.957,6.384,6.384,0,0,0-4.492,2L14.4-39.99A6.582,6.582,0,0,0,12.451-35.352Z"/>
    </g>
    <g id="Medium-M" transform="translate(1687.89 1126)">
      <path id="Path_95" data-name="Path 95" d="M12.451-35.3a5.6,5.6,0,0,0,1.758,4L46.436.879a5.416,5.416,0,0,0,3.857,1.66,5.1,5.1,0,0,0,5.322-5.176A5.187,5.187,0,0,0,54-6.494L43.018-17.627,28.857-30.566l11.377.684h59.18a5.217,5.217,0,0,0,5.469-5.42,5.229,5.229,0,0,0-5.469-5.469H40.234l-11.328.684L43.018-53.027,54-64.16a5.187,5.187,0,0,0,1.611-3.857,5.1,5.1,0,0,0-5.322-5.176,5.619,5.619,0,0,0-4,1.758l-32.08,32.08A5.623,5.623,0,0,0,12.451-35.3Z"/>
    </g>
    <g id="Regular-M" transform="translate(1392.06 1126)">
      <path id="Path_96" data-name="Path 96" d="M12.451-35.254a4.477,4.477,0,0,0,1.514,3.271L46.387.391a4.451,4.451,0,0,0,3.174,1.367,4.161,4.161,0,0,0,4.3-4.2,4.274,4.274,0,0,0-1.221-3.076L41.7-16.65,25.244-31.641l11.816.732H98.828a4.14,4.14,0,0,0,4.3-4.346,4.14,4.14,0,0,0-4.3-4.346H37.061l-11.768.732L41.7-53.857,52.637-64.99a4.357,4.357,0,0,0,1.221-3.076,4.161,4.161,0,0,0-4.3-4.2A4.368,4.368,0,0,0,46.289-70.8L13.965-38.525A4.477,4.477,0,0,0,12.451-35.254Z"/>
    </g>
    <g id="Light-M" transform="translate(1095.35 1126)">
      <path id="Path_97" data-name="Path 97" d="M12.451-35.254a3.279,3.279,0,0,0,1.123,2.441L46.436.146a3.36,3.36,0,0,0,2.393.977A3.16,3.16,0,0,0,52.1-2.051a3.367,3.367,0,0,0-.928-2.344l-14.6-14.746L22.119-32.52l11.377.537H99.9a3.143,3.143,0,0,0,3.223-3.271A3.143,3.143,0,0,0,99.9-38.525H33.5l-11.328.537,14.4-13.379,14.6-14.746a3.276,3.276,0,0,0,.928-2.393,3.16,3.16,0,0,0-3.272-3.174,3.615,3.615,0,0,0-2.637,1.27L13.574-37.7A3.279,3.279,0,0,0,12.451-35.254Z"/>
    </g>
    <g id="Thin-M" transform="translate(798.634 1126)">
      <path id="Path_98" data-name="Path 98" d="M12.451-35.254a1.731,1.731,0,0,0,.635,1.367L46.533-.244a1.744,1.744,0,0,0,1.318.586,1.836,1.836,0,0,0,1.9-1.855,2.021,2.021,0,0,0-.488-1.367L29.736-22.412,18.115-33.691,28.76-33.4h72.51a1.824,1.824,0,0,0,1.855-1.855,1.824,1.824,0,0,0-1.855-1.856H28.76l-10.645.244L29.736-48.1,49.268-67.627a2.086,2.086,0,0,0,.488-1.416,1.826,1.826,0,0,0-1.9-1.807,2.466,2.466,0,0,0-1.807.977L13.086-36.621A1.731,1.731,0,0,0,12.451-35.254Z"/>
    </g>
    <g id="Ultralight-M" transform="translate(501.923 1126)">
      <path id="Path_99" data-name="Path 99" d="M12.451-35.254a1.071,1.071,0,0,0,.342.83L46.533-.439a1.071,1.071,0,0,0,.83.342,1.16,1.16,0,0,0,1.221-1.123,1.57,1.57,0,0,0-.293-.879L26.27-24.121l-10.2-10.107,10.254.1H102a1.136,1.136,0,0,0,1.123-1.123A1.136,1.136,0,0,0,102-36.377H26.318l-10.254.1,10.2-10.107L48.291-68.408a1.408,1.408,0,0,0,.293-.928,1.16,1.16,0,0,0-1.221-1.123c-.342,0-.732.146-1.367.879l-33.2,33.5A1.071,1.071,0,0,0,12.451-35.254Z"/>
    </g>
    <g id="Black-S" transform="translate(2884.35 696)">
      <path id="Path_100" data-name="Path 100" d="M9.766-35.5a8.759,8.759,0,0,0,2.295,5.859L36.426-5.322a7.95,7.95,0,0,0,5.469,2.49c4.834,0,7.91-3.271,7.91-7.52a7.71,7.71,0,0,0-2.686-5.762L38.33-24.756l-3.32-3.076,7.422.342h37.4c5.127,0,8.5-3.174,8.5-8.008s-3.369-8.008-8.5-8.008h-37.4l-7.422.342,3.32-3.076,8.789-8.691A7.71,7.71,0,0,0,49.8-60.693c0-4.248-3.076-7.519-7.91-7.519a7.95,7.95,0,0,0-5.469,2.49L12.061-41.357A8.759,8.759,0,0,0,9.766-35.5Z"/>
    </g>
    <g id="Heavy-S" transform="translate(2588.52 696)">
      <path id="Path_101" data-name="Path 101" d="M9.766-35.449a7.706,7.706,0,0,0,2.051,5.176L36.426-5.762a7,7,0,0,0,4.834,2.2c4.2,0,6.934-2.881,6.934-6.641a6.907,6.907,0,0,0-2.3-5.078l-8.3-8.2-5.762-5.322,7.861.391H79.15c4.443,0,7.422-2.783,7.422-7.031S83.594-42.48,79.15-42.48H39.7l-7.812.391L37.6-47.363l8.3-8.3a6.8,6.8,0,0,0,2.3-5.029c0-3.76-2.734-6.641-6.934-6.641a6.992,6.992,0,0,0-4.883,2.2L11.816-40.625A7.8,7.8,0,0,0,9.766-35.449Z"/>
    </g>
    <g id="Bold-S" transform="translate(2292.81 696)">
      <path id="Path_102" data-name="Path 102" d="M9.766-35.4a6.4,6.4,0,0,0,1.807,4.443L36.377-6.25a6.068,6.068,0,0,0,4.15,1.855,5.582,5.582,0,0,0,5.908-5.664,5.779,5.779,0,0,0-1.9-4.248l-7.764-7.813-8.5-7.764,8.35.488H78.369c3.711,0,6.2-2.441,6.2-6.006s-2.49-5.957-6.2-5.957H36.621l-8.35.488,8.5-7.764,7.764-7.812a5.888,5.888,0,0,0,1.9-4.3,5.582,5.582,0,0,0-5.908-5.664,5.926,5.926,0,0,0-4.15,1.9l-24.8,24.707A6.375,6.375,0,0,0,9.766-35.4Z"/>
    </g>
    <g id="Semibold-S" transform="translate(1996.78 696)">
      <path id="Path_103" data-name="Path 103" d="M9.766-35.352a5.682,5.682,0,0,0,1.66,3.906L36.377-6.592A5.3,5.3,0,0,0,40.039-4.98a4.86,4.86,0,0,0,5.127-4.98A5.081,5.081,0,0,0,43.6-13.672l-7.422-7.471L25.732-30.664l8.74.586H77.832A5.05,5.05,0,0,0,83.2-35.352a5.038,5.038,0,0,0-5.371-5.225H34.473l-8.691.537,10.4-9.473,7.422-7.52a5,5,0,0,0,1.563-3.711,4.888,4.888,0,0,0-5.127-4.981,5.351,5.351,0,0,0-3.711,1.66l-24.9,24.854A5.567,5.567,0,0,0,9.766-35.352Z"/>
    </g>
    <g id="Medium-S" transform="translate(1700.58 696)">
      <path id="Path_104" data-name="Path 104" d="M9.766-35.3a4.816,4.816,0,0,0,1.514,3.467l25.049,25A4.8,4.8,0,0,0,39.7-5.371a4.374,4.374,0,0,0,4.541-4.492,4.568,4.568,0,0,0-1.367-3.32L35.742-20.41,23.828-31.25l9.082.635H77.441A4.525,4.525,0,0,0,82.178-35.3a4.487,4.487,0,0,0-4.736-4.639H32.91l-9.033.586L35.742-50.146l7.129-7.275a4.568,4.568,0,0,0,1.367-3.32A4.374,4.374,0,0,0,39.7-65.234a4.8,4.8,0,0,0-3.369,1.465l-25.049,25A4.815,4.815,0,0,0,9.766-35.3Z"/>
    </g>
    <g id="Regular-S" transform="translate(1404.56 696)">
      <path id="Path_105" data-name="Path 105" d="M9.766-35.254a4.037,4.037,0,0,0,1.367,2.93l25.2,25.146a4.119,4.119,0,0,0,2.881,1.221,3.723,3.723,0,0,0,3.809-3.809A3.717,3.717,0,0,0,41.943-12.5l-6.738-6.982-13.916-12.5,9.521.684H76.9a3.782,3.782,0,0,0,3.906-3.955A3.782,3.782,0,0,0,76.9-39.209H30.81l-9.473.684,13.867-12.5,6.738-6.982a3.717,3.717,0,0,0,1.074-2.734,3.723,3.723,0,0,0-3.809-3.809,4.119,4.119,0,0,0-2.881,1.221l-25.2,25.146A4.037,4.037,0,0,0,9.766-35.254Z"/>
    </g>
    <g id="Light-S" transform="translate(1107.85 696)">
      <path id="Path_106" data-name="Path 106" d="M9.766-35.254a3.02,3.02,0,0,0,1.025,2.246L36.377-7.422a3.046,3.046,0,0,0,2.148.928A2.878,2.878,0,0,0,41.5-9.375a3.027,3.027,0,0,0-.83-2.148L30.615-21.68,18.555-32.764l9.082.488H77.881a2.833,2.833,0,0,0,2.93-2.979,2.833,2.833,0,0,0-2.93-2.979H27.637l-9.082.488,12.06-11.084L40.674-58.984a3.027,3.027,0,0,0,.83-2.148,2.878,2.878,0,0,0-2.979-2.881,3.131,3.131,0,0,0-2.295,1.074L10.791-37.5A3.02,3.02,0,0,0,9.766-35.254Z"/>
    </g>
    <g id="Thin-S" transform="translate(811.134 696)">
      <path id="Path_107" data-name="Path 107" d="M9.766-35.254a1.644,1.644,0,0,0,.586,1.269L36.426-7.764a1.665,1.665,0,0,0,1.27.537,1.671,1.671,0,0,0,1.758-1.66,1.856,1.856,0,0,0-.488-1.269L24.609-24.56l-9.668-9.229,8.5.244H79.1a1.641,1.641,0,0,0,1.709-1.709A1.641,1.641,0,0,0,79.1-36.963H23.438l-8.5.244,9.668-9.229,14.355-14.4a1.656,1.656,0,0,0,.488-1.27,1.671,1.671,0,0,0-1.758-1.66,1.987,1.987,0,0,0-1.562.83L10.352-36.523A1.644,1.644,0,0,0,9.766-35.254Z"/>
    </g>
    <g id="Ultralight-S" transform="translate(514.423 696)">
      <path id="Path_108" data-name="Path 108" d="M9.766-35.254a.91.91,0,0,0,.342.781L36.475-7.91a1.152,1.152,0,0,0,.781.342,1.065,1.065,0,0,0,1.123-1.074,1.074,1.074,0,0,0-.293-.83l-16.553-16.6-8.4-8.2,8.154.1H79.736a1.053,1.053,0,0,0,1.074-1.074,1.053,1.053,0,0,0-1.074-1.074H21.289l-8.154.1,8.4-8.2,16.553-16.6a.976.976,0,0,0,.293-.83,1.065,1.065,0,0,0-1.123-1.074c-.342,0-.635.146-1.221.732L10.107-36.035A.911.911,0,0,0,9.766-35.254Z"/>
    </g>
  </g>
</svg>
