<svg id="shuffle" xmlns="http://www.w3.org/2000/svg" width="3300" height="2200" viewBox="0 0 3300 2200">
  <g id="Notes">
    <rect id="artboard" width="3300" height="2200" fill="#fff"/>
    <line id="Line_1" data-name="Line 1" x2="2773" transform="translate(263 292)" fill="none" stroke="#000" stroke-width="0.5"/>
    <text id="Weight_Scale_Variations" data-name="Weight/Scale Variations" transform="translate(263 322)" font-size="20" font-family="Helvetica-Bold, Helvetica" font-weight="700"><tspan x="0" y="0">Weight/Scale Variations</tspan></text>
    <text id="Ultralight" transform="translate(559.711 322)" font-size="20" font-family="Helvetica"><tspan x="-39.458" y="0">Ultralight</tspan></text>
    <text id="Thin" transform="translate(856.422 322)" font-size="20" font-family="Helvetica"><tspan x="-19.453" y="0">Thin</tspan></text>
    <text id="Light" transform="translate(1153.13 322)" font-size="20" font-family="Helvetica"><tspan x="-21.685" y="0">Light</tspan></text>
    <text id="Regular" transform="translate(1449.84 322)" font-size="20" font-family="Helvetica"><tspan x="-35.02" y="0">Regular</tspan></text>
    <text id="Medium" transform="translate(1746.56 322)" font-size="20" font-family="Helvetica"><tspan x="-35.566" y="0">Medium</tspan></text>
    <text id="Semibold" transform="translate(2043.27 322)" font-size="20" font-family="Helvetica"><tspan x="-41.689" y="0">Semibold</tspan></text>
    <text id="Bold" transform="translate(2339.98 322)" font-size="20" font-family="Helvetica"><tspan x="-20.015" y="0">Bold</tspan></text>
    <text id="Heavy" transform="translate(2636.69 322)" font-size="20" font-family="Helvetica"><tspan x="-28.345" y="0">Heavy</tspan></text>
    <text id="Black" transform="translate(2933.4 322)" font-size="20" font-family="Helvetica"><tspan x="-24.453" y="0">Black</tspan></text>
    <line id="Line_2" data-name="Line 2" x2="2773" transform="translate(263 1903)" fill="none" stroke="#000" stroke-width="0.5"/>
    <g id="Group_1" data-name="Group 1" transform="translate(263 1933)">
      <path id="Path_1" data-name="Path 1" d="M9.248.83a7.949,7.949,0,0,0,7.891-7.881,7.957,7.957,0,0,0-7.9-7.881A7.938,7.938,0,0,0,1.367-7.051,7.947,7.947,0,0,0,9.248.83Zm0-1.484a6.358,6.358,0,0,1-6.377-6.4,6.35,6.35,0,0,1,6.367-6.4,6.383,6.383,0,0,1,6.406,6.4A6.362,6.362,0,0,1,9.248-.654Zm-.02-2.969c.469,0,.742-.312.742-.83V-6.318H12c.5,0,.83-.254.83-.723s-.312-.742-.83-.742H9.971V-9.814c0-.518-.273-.84-.742-.84s-.723.342-.723.84v2.031H6.494c-.518,0-.85.264-.85.742s.352.723.85.723H8.506v1.865C8.506-3.955,8.76-3.623,9.229-3.623Z"/>
    </g>
    <g id="Group_2" data-name="Group 2" transform="translate(281.506 1933)">
      <path id="Path_2" data-name="Path 2" d="M11.709,2.91A10.035,10.035,0,0,0,21.67-7.051,10.037,10.037,0,0,0,11.7-17.012,10.026,10.026,0,0,0,1.748-7.051,10.041,10.041,0,0,0,11.709,2.91Zm0-1.66a8.261,8.261,0,0,1-8.291-8.3,8.252,8.252,0,0,1,8.281-8.3,8.284,8.284,0,0,1,8.311,8.3A8.263,8.263,0,0,1,11.709,1.25ZM11.68-2.666c.527,0,.83-.352.83-.928V-6.23h2.813c.547,0,.928-.283.928-.8a.814.814,0,0,0-.928-.83H12.51v-2.822a.814.814,0,0,0-.83-.928c-.518,0-.8.381-.8.928v2.822h-2.8a.822.822,0,0,0-.937.83c0,.518.391.8.938.8h2.8v2.637C10.879-3.037,11.162-2.666,11.68-2.666Z"/>
    </g>
    <g id="Group_3" data-name="Group 3" transform="translate(304.924 1933)">
      <path id="Path_3" data-name="Path 3" d="M14.971,5.664A12.806,12.806,0,0,0,27.7-7.051,12.817,12.817,0,0,0,14.961-19.775,12.8,12.8,0,0,0,2.256-7.051,12.8,12.8,0,0,0,14.971,5.664Zm0-1.816A10.87,10.87,0,0,1,4.082-7.051a10.855,10.855,0,0,1,10.879-10.9,10.88,10.88,0,0,1,10.908,10.9A10.865,10.865,0,0,1,14.971,3.848Zm-.029-5.234a.889.889,0,0,0,.918-1v-3.75h3.916a.891.891,0,0,0,1.006-.889.893.893,0,0,0-1.006-.918H15.859v-3.926a.893.893,0,0,0-.918-1.006.886.886,0,0,0-.889,1.006v3.926H10.146a.9.9,0,0,0-1.016.918.9.9,0,0,0,1.016.889h3.906v3.75A.883.883,0,0,0,14.941-1.387Z"/>
    </g>
    <text id="Design_Variations" data-name="Design Variations" transform="translate(263 1953)" font-size="20" font-family="Helvetica-Bold, Helvetica" font-weight="700"><tspan x="0" y="0">Design Variations</tspan></text>
    <text id="Symbols_are_supported_in_up_to_nine_weights_and_three_scales." data-name="Symbols are supported in up to nine weights and three scales." transform="translate(263 1971)" font-size="20" font-family="Helvetica"><tspan x="0" y="0">Symbols are supported in up to nine weights and three scales.</tspan></text>
    <text id="For_optimal_layout_with_text_and_other_symbols_vertically_align" data-name="For optimal layout with text and other symbols, vertically align" transform="translate(263 1989)" font-size="20" font-family="Helvetica"><tspan x="0" y="0">For optimal layout with text and other symbols, vertically align</tspan></text>
    <text id="symbols_with_the_adjacent_text." data-name="symbols with the adjacent text." transform="translate(263 2007)" font-size="20" font-family="Helvetica"><tspan x="0" y="0">symbols with the adjacent text.</tspan></text>
    <line id="Line_3" data-name="Line 3" y2="14" transform="translate(776 1919)" fill="none" stroke="#00aeef" stroke-width="0.5"/>
    <g id="Group_4" data-name="Group 4" transform="translate(776 1933)">
      <path id="Path_4" data-name="Path 4" d="M3.311.127a.887.887,0,0,0,.957-.732l1.26-3.457h5.762l1.26,3.457A.884.884,0,0,0,13.5.127a.773.773,0,0,0,.85-.8,1.447,1.447,0,0,0-.107-.527L9.658-13.389a1.225,1.225,0,0,0-1.25-.9,1.212,1.212,0,0,0-1.23.889L2.6-1.191a1.447,1.447,0,0,0-.107.527A.747.747,0,0,0,3.311.127Zm2.7-5.664,2.373-6.572h.049L10.8-5.537Z"/>
    </g>
    <line id="Line_4" data-name="Line 4" y2="14" transform="translate(792.836 1919)" fill="none" stroke="#00aeef" stroke-width="0.5"/>
    <text id="Margins" transform="translate(776 1953)" font-size="20" font-family="Helvetica-Bold, Helvetica" font-weight="700"><tspan x="0" y="0">Margins</tspan></text>
    <text id="Leading_and_trailing_margins_on_the_left_and_right_side_of_each_symbol" data-name="Leading and trailing margins on the left and right side of each symbol" transform="translate(776 1971)" font-size="20" font-family="Helvetica"><tspan x="0" y="0">Leading and trailing margins on the left and right side of each symbol</tspan></text>
    <text id="can_be_adjusted_by_modifying_the_x-location_of_the_margin_guidelines." data-name="can be adjusted by modifying the x-location of the margin guidelines." transform="translate(776 1989)" font-size="20" font-family="Helvetica"><tspan x="0" y="0">can be adjusted by modifying the x-location of the margin guidelines.</tspan></text>
    <text id="Modifications_are_automatically_applied_proportionally_to_all" data-name="Modifications are automatically applied proportionally to all" transform="translate(776 2007)" font-size="20" font-family="Helvetica"><tspan x="0" y="0">Modifications are automatically applied proportionally to all</tspan></text>
    <text id="scales_and_weights." data-name="scales and weights." transform="translate(776 2025)" font-size="20" font-family="Helvetica"><tspan x="0" y="0">scales and weights.</tspan></text>
    <g id="Group_5" data-name="Group 5" transform="translate(1289 1933)">
      <path id="Path_5" data-name="Path 5" d="M2.842,1.865l1.7,1.709c.859.869,1.846.811,2.773-.215L17.49-7.852a1.661,1.661,0,0,0,.85.01l1.065-.2.664.674-.039.557a1.551,1.551,0,0,0,.576,1.357l.762.742a1.038,1.038,0,0,0,1.563.039l2.91-2.92a1.016,1.016,0,0,0-.029-1.543l-.771-.762a1.569,1.569,0,0,0-1.328-.6l-.576.049-.645-.635.244-1.123a1.581,1.581,0,0,0-.615-1.592l-2.2-2.187c-3.34-3.32-7.773-3.242-10.664-.352a1.123,1.123,0,0,0-.215,1.377,1.154,1.154,0,0,0,1.338.43,5.408,5.408,0,0,1,4.414.537l-.586,1.455a1.7,1.7,0,0,0-.1,1.24L3.047-.9C2.061.02,1.982,1,2.842,1.865Zm7.91-17.822a6.056,6.056,0,0,1,7.949.752l2.432,2.412a.708.708,0,0,1,.205.762l-.322,1.484,1.5,1.484.986-.059a.542.542,0,0,1,.527.205l.576.576L22.168-5.9l-.576-.576a.557.557,0,0,1-.215-.537l.068-.977L19.951-9.473l-1.524.254a.641.641,0,0,1-.713-.2l-2-2c-.254-.234-.283-.4-.127-.771l.879-2.09a5.759,5.759,0,0,0-5.625-1.484C10.684-15.723,10.625-15.85,10.752-15.957ZM5.273,2.3,4.1,1.143C3.633.684,3.74.342,4.141-.02L14.951-10.2l1.465,1.484L6.426,2.275C6.074,2.676,5.742,2.773,5.273,2.3Z"/>
    </g>
    <text id="Exporting" transform="translate(1289 1953)" font-size="20" font-family="Helvetica-Bold, Helvetica" font-weight="700"><tspan x="0" y="0">Exporting</tspan></text>
    <text id="Symbols_should_be_outlined_when_exporting_to_ensure_the" data-name="Symbols should be outlined when exporting to ensure the" transform="translate(1289 1971)" font-size="20" font-family="Helvetica"><tspan x="0" y="0">Symbols should be outlined when exporting to ensure the</tspan></text>
    <text id="design_is_preserved_when_submitting_to_Xcode." data-name="design is preserved when submitting to Xcode." transform="translate(1289 1989)" font-size="20" font-family="Helvetica"><tspan x="0" y="0">design is preserved when submitting to Xcode.</tspan></text>
    <text id="template-version" transform="translate(3036 1933)" font-size="20" font-family="Helvetica"><tspan x="-128.594" y="0">Template v.2.0</tspan></text>
    <text id="Requires_Xcode_12_or_greater" data-name="Requires Xcode 12 or greater" transform="translate(3036 1951)" font-size="20" font-family="Helvetica"><tspan x="-262.373" y="0">Requires Xcode 12 or greater</tspan></text>
    <text id="Generated_from_shuffle" data-name="Generated from shuffle" transform="translate(3036 1969)" font-size="20" font-family="Helvetica"><tspan x="-204.551" y="0">Generated from shuffle</tspan></text>
    <text id="Typeset_at_100_points" data-name="Typeset at 100 points" transform="translate(3036 1987)" font-size="20" font-family="Helvetica"><tspan x="-190.137" y="0">Typeset at 100 points</tspan></text>
    <text id="Small" transform="translate(263 726)" font-size="20" font-family="Helvetica"><tspan x="0" y="0">Small</tspan></text>
    <text id="Medium-2" data-name="Medium" transform="translate(263 1156)" font-size="20" font-family="Helvetica"><tspan x="0" y="0">Medium</tspan></text>
    <text id="Large" transform="translate(263 1586)" font-size="20" font-family="Helvetica"><tspan x="0" y="0">Large</tspan></text>
  </g>
  <g id="Guides">
    <g id="H-reference" transform="translate(339 696)">
      <path id="Path_6" data-name="Path 6" d="M.977,0H3.662l9.326-24.463H45.752L55.127,0h2.637L30.615-70.459h-2.49ZM29.346-67.139h.1l15.43,40.43H13.867Z" fill="#27aae1"/>
    </g>
    <line id="Baseline-S" x2="2773" transform="translate(263 696)" fill="none" stroke="#27aae1" stroke-width="0.5"/>
    <line id="Capline-S" x2="2773" transform="translate(263 625.541)" fill="none" stroke="#27aae1" stroke-width="0.5"/>
    <g id="H-reference-2" data-name="H-reference" transform="translate(339 1126)">
      <path id="Path_7" data-name="Path 7" d="M.977,0H3.662l9.326-24.463H45.752L55.127,0h2.637L30.615-70.459h-2.49ZM29.346-67.139h.1l15.43,40.43H13.867Z" fill="#27aae1"/>
    </g>
    <line id="Baseline-M" x2="2773" transform="translate(263 1126)" fill="none" stroke="#27aae1" stroke-width="0.5"/>
    <line id="Capline-M" x2="2773" transform="translate(263 1055.54)" fill="none" stroke="#27aae1" stroke-width="0.5"/>
    <g id="H-reference-3" data-name="H-reference" transform="translate(339 1556)">
      <path id="Path_8" data-name="Path 8" d="M.977,0H3.662l9.326-24.463H45.752L55.127,0h2.637L30.615-70.459h-2.49ZM29.346-67.139h.1l15.43,40.43H13.867Z" fill="#27aae1"/>
    </g>
    <line id="Baseline-L" x2="2773" transform="translate(263 1556)" fill="none" stroke="#27aae1" stroke-width="0.5"/>
    <line id="Capline-L" x2="2773" transform="translate(263 1485.54)" fill="none" stroke="#27aae1" stroke-width="0.5"/>
  </g>
  <g id="Symbols">
    <g id="Black-L" transform="translate(2833.06 1556)">
      <path id="Path_9" data-name="Path 9" d="M16.065,2.441A10.37,10.37,0,0,0,26.611,12.793H42.969c12.256,0,20.02-4,27-12.744L84.766-18.457,98.584-1.172c8.008,10.01,19.141,13.965,31.445,13.965h10.45v13.33c0,4.981,3.125,8.154,8.007,8.154a8.444,8.444,0,0,0,5.567-2.051L181.934,8.5a7.254,7.254,0,0,0,0-11.279L154.053-26.514a8.444,8.444,0,0,0-5.567-2.051c-4.882,0-8.007,3.174-8.007,8.154v12.5H130.371c-8.887,0-14.551-2.93-19.775-9.473l-13.33-16.7L110.84-51.025c5.566-7.031,9.472-9.277,18.017-9.277h11.622V-48c0,4.98,3.125,8.105,8.007,8.105a8.412,8.412,0,0,0,5.567-2l27.881-23.779a7.255,7.255,0,0,0,0-11.279l-27.881-23.731a8.416,8.416,0,0,0-5.567-2c-4.882,0-8.007,3.125-8.007,8.106v13.574H130.225c-13.77,0-23.584,3.516-33.3,15.82L84.717-49.8,69.971-68.262c-6.982-8.74-16.5-12.744-28.76-12.744h-14.6A10.37,10.37,0,0,0,16.065-70.654,10.339,10.339,0,0,0,26.611-60.3H38.184c8.789,0,15.479,2.832,20.7,9.375l13.379,16.8L58.887-17.285C53.662-10.693,48.682-7.91,39.941-7.91H26.611A10.339,10.339,0,0,0,16.065,2.441Z"/>
    </g>
    <g id="Heavy-L" transform="translate(2539.2 1556)">
      <path id="Path_10" data-name="Path 10" d="M16.065,1.074a9.384,9.384,0,0,0,9.668,9.375h15.82c11.865,0,19.287-3.76,26.465-12.6L82.666-20.166,96.533-3.076c7.91,9.814,17.92,13.574,29.834,13.574h10.547V24.023c0,4.541,2.881,7.422,7.373,7.422a7.738,7.738,0,0,0,5.176-1.9L176.318,6.885a6.726,6.726,0,0,0,0-10.6L149.463-26.367a7.99,7.99,0,0,0-5.176-1.9c-4.492,0-7.373,2.881-7.373,7.471V-8.35H126.66c-8.3,0-13.574-2.686-18.8-9.131L94.189-34.375l13.819-17.041c5.517-6.836,9.472-9.033,17.48-9.033h11.426V-48.1c0,4.59,2.881,7.471,7.373,7.471a7.738,7.738,0,0,0,5.176-1.9l26.855-22.656a6.726,6.726,0,0,0,0-10.6L149.463-98.437a7.738,7.738,0,0,0-5.176-1.9c-4.492,0-7.373,2.881-7.373,7.422v13.672h-10.4c-13.037,0-22.022,3.418-31.25,14.893L82.617-48.682,68.018-66.65c-7.178-8.838-15.918-12.6-27.783-12.6h-14.5a9.384,9.384,0,0,0-9.668,9.375,9.424,9.424,0,0,0,9.668,9.424H37.988c8.154,0,14.209,2.637,19.434,9.131L71.094-34.424,57.422-17.432C52.148-10.937,47.461-8.35,39.355-8.35H25.732A9.424,9.424,0,0,0,16.065,1.074Z"/>
    </g>
    <g id="Bold-L" transform="translate(2245.69 1556)">
      <path id="Path_11" data-name="Path 11" d="M16.065-.439c0,4.736,3.662,8.3,8.642,8.3H39.99c11.426,0,18.457-3.564,25.83-12.4L80.273-22.07,94.238-5.127c7.813,9.473,16.553,12.988,28.028,12.988h10.693v13.77c0,4.1,2.539,6.641,6.641,6.641a7.441,7.441,0,0,0,4.785-1.709L170.068,5.127a6.161,6.161,0,0,0,0-9.814L144.385-26.172A7.481,7.481,0,0,0,139.6-27.93c-4.1,0-6.641,2.588-6.641,6.69V-8.789H122.51c-7.666,0-12.5-2.49-17.725-8.838L90.674-34.717,104.883-51.9c5.42-6.592,9.375-8.789,16.894-8.789h11.182v12.549c0,4.1,2.539,6.689,6.641,6.689a7.481,7.481,0,0,0,4.785-1.758l25.683-21.436a6.161,6.161,0,0,0,0-9.814L144.385-95.947a7.481,7.481,0,0,0-4.785-1.758c-4.1,0-6.641,2.588-6.641,6.689v13.672h-10.6c-12.207,0-20.263,3.32-28.955,13.965L80.225-47.363,65.82-64.893c-7.373-8.887-15.283-12.4-26.66-12.4H24.707c-4.98,0-8.642,3.564-8.642,8.3a8.325,8.325,0,0,0,8.642,8.35H37.793c7.422,0,12.744,2.441,17.969,8.838l14.063,17.09L55.762-17.627c-5.273,6.4-9.717,8.838-17.09,8.838H24.707A8.325,8.325,0,0,0,16.065-.439Z"/>
    </g>
    <g id="Semibold-L" transform="translate(1951.2 1556)">
      <path id="Path_12" data-name="Path 12" d="M16.065-1.514c0,4.395,3.32,7.568,7.959,7.568H38.916c11.133,0,17.92-3.369,25.342-12.256L78.613-23.389l14.063,16.8c7.715,9.326,15.576,12.7,26.758,12.7h10.742V19.971c0,3.76,2.392,6.152,6.2,6.152a7.172,7.172,0,0,0,4.492-1.66l24.9-20.605a5.816,5.816,0,0,0,0-9.277l-24.9-20.605a6.9,6.9,0,0,0-4.492-1.66c-3.809,0-6.2,2.392-6.2,6.1v12.5h-10.5c-7.227,0-11.817-2.344-17.041-8.643L88.281-34.961l14.4-17.236c5.371-6.445,9.375-8.643,16.5-8.643h10.987v12.646c0,3.76,2.392,6.152,6.2,6.152a7.172,7.172,0,0,0,4.492-1.66l24.9-20.605a5.816,5.816,0,0,0,0-9.277l-24.9-20.605a6.9,6.9,0,0,0-4.492-1.66c-3.809,0-6.2,2.344-6.2,6.1v13.77H119.482c-11.621,0-19.043,3.223-27.343,13.233L78.613-46.533,64.258-63.672c-7.422-8.887-14.746-12.3-25.879-12.3H24.023c-4.639,0-7.959,3.223-7.959,7.568a7.59,7.59,0,0,0,7.959,7.617H37.646c6.934,0,11.719,2.344,16.992,8.643L68.994-34.961,54.639-17.725c-5.273,6.3-9.521,8.643-16.455,8.643H24.023C19.434-9.082,16.065-5.859,16.065-1.514Z"/>
    </g>
    <g id="Medium-L" transform="translate(1656.15 1556)">
      <path id="Path_13" data-name="Path 13" d="M16.065-2.295c0,4.1,3.076,6.982,7.422,6.982H38.135c10.84,0,17.432-3.271,25-12.158L77.393-24.365l14.063,16.7c7.666,9.131,14.893,12.4,25.83,12.4h10.84V18.75c0,3.516,2.246,5.713,5.762,5.713a6.827,6.827,0,0,0,4.3-1.562L162.5,2.93a5.488,5.488,0,0,0,0-8.838l-24.316-20.02a6.6,6.6,0,0,0-4.3-1.611,5.384,5.384,0,0,0-5.762,5.762V-9.326H117.48c-6.884,0-11.23-2.246-16.455-8.5l-14.6-17.285,14.648-17.334c5.322-6.348,9.326-8.5,16.162-8.5h10.889v12.744a5.371,5.371,0,0,0,5.762,5.713,6.827,6.827,0,0,0,4.3-1.562L162.5-64.014a5.536,5.536,0,0,0,0-8.887L138.184-92.92a6.827,6.827,0,0,0-4.3-1.562,5.371,5.371,0,0,0-5.762,5.713V-75H117.334C106.1-75,99.17-71.777,91.162-62.256L77.393-45.85,63.135-62.793C55.566-71.68,48.682-74.951,37.793-74.951H23.486c-4.346,0-7.422,2.93-7.422,7.031,0,4.053,3.125,7.031,7.422,7.031H37.549c6.543,0,10.986,2.246,16.211,8.447l14.6,17.334L53.76-17.822c-5.273,6.25-9.375,8.5-15.918,8.5H23.486C19.19-9.326,16.065-6.348,16.065-2.295Z"/>
    </g>
    <g id="Regular-L" transform="translate(1361.64 1556)">
      <path id="Subtraction_1" data-name="Subtraction 1" d="M-7007.64-6623h-152a29.811,29.811,0,0,1-11.677-2.357,29.9,29.9,0,0,1-9.535-6.43,29.9,29.9,0,0,1-6.43-9.535A29.811,29.811,0,0,1-7189.64-6653v-91a29.811,29.811,0,0,1,2.357-11.677,29.9,29.9,0,0,1,6.43-9.535,29.9,29.9,0,0,1,9.535-6.43,29.811,29.811,0,0,1,11.677-2.357h152a29.811,29.811,0,0,1,11.677,2.357,29.9,29.9,0,0,1,9.535,6.43,29.9,29.9,0,0,1,6.43,9.535A29.811,29.811,0,0,1-6977.64-6744v91a29.811,29.811,0,0,1-2.357,11.677,29.9,29.9,0,0,1-6.43,9.535,29.9,29.9,0,0,1-9.535,6.43A29.811,29.811,0,0,1-7007.64-6623Zm-88.628-65.684h0l14.16,16.6c3.958,4.644,7.4,7.537,11.151,9.381,3.771,1.853,7.922,2.68,13.458,2.68h10.889v14.161a5.12,5.12,0,0,0,1.434,3.778,5.431,5.431,0,0,0,3.888,1.4,6.518,6.518,0,0,0,4-1.463l23.536-19.141a5.336,5.336,0,0,0,2.1-4.134,5.421,5.421,0,0,0-2.1-4.216l-23.536-19.189a6.522,6.522,0,0,0-4-1.465,5.429,5.429,0,0,0-3.888,1.4,5.121,5.121,0,0,0-1.434,3.779v12.5h-10.743a16.974,16.974,0,0,1-8.319-1.842,25.679,25.679,0,0,1-7.4-6.458l-14.892-17.432,14.892-17.432a25.706,25.706,0,0,1,7.4-6.457,16.963,16.963,0,0,1,8.319-1.843h10.743v12.842a5.12,5.12,0,0,0,1.434,3.778,5.429,5.429,0,0,0,3.888,1.4,6.526,6.526,0,0,0,4-1.465l23.536-19.141a5.338,5.338,0,0,0,2.1-4.135,5.419,5.419,0,0,0-2.1-4.215l-23.536-19.189a6.526,6.526,0,0,0-4-1.465,5.429,5.429,0,0,0-3.888,1.4,5.122,5.122,0,0,0-1.434,3.779v13.867H-7057.5c-5.546,0-9.7.819-13.458,2.655s-7.2,4.721-11.151,9.356l-14.161,16.6-14.11-16.553c-3.979-4.637-7.434-7.53-11.2-9.38s-7.892-2.68-13.36-2.68H-7149.2a6.955,6.955,0,0,0-4.89,1.759,6.058,6.058,0,0,0-1.85,4.54,6.112,6.112,0,0,0,1.886,4.523,7.022,7.022,0,0,0,4.853,1.776h14.6c6.113,0,9.957,2.094,15.234,8.3l14.845,17.383-14.845,17.432c-5.367,6.206-9.211,8.3-15.234,8.3h-14.6a7.069,7.069,0,0,0-4.853,1.752,6.045,6.045,0,0,0-1.886,4.5c0,3.768,2.708,6.3,6.739,6.3h14.258c5.469,0,9.589-.827,13.36-2.68s7.222-4.744,11.2-9.38l14.109-16.552Z" transform="translate(7172 6663)"/>
    </g>
    <g id="Light-L" transform="translate(1067.42 1556)">
      <path id="Path_15" data-name="Path 15" d="M16.065-4a5.451,5.451,0,0,0,5.81,5.566h14.16c10.156,0,16.211-3.027,23.584-11.67l14.16-16.7,14.16,16.748c7.373,8.643,13.427,11.67,23.682,11.67h10.01v14.4a4.435,4.435,0,0,0,4.785,4.688,5.605,5.605,0,0,0,3.662-1.367L153.32.928a5.078,5.078,0,0,0,0-8.154L130.078-25.635A5.606,5.606,0,0,0,126.416-27a4.435,4.435,0,0,0-4.785,4.688V-9.473H111.523c-6.347,0-10.4-2.2-15.869-8.594L81.006-35.3,95.654-52.588c5.469-6.4,9.522-8.594,15.869-8.594h10.108V-48.1a4.411,4.411,0,0,0,4.785,4.688,5.819,5.819,0,0,0,3.662-1.318L153.32-63.135a5.126,5.126,0,0,0,0-8.2L130.078-89.746a5.819,5.819,0,0,0-3.662-1.318,4.411,4.411,0,0,0-4.785,4.688v14.16h-10.01c-10.254,0-16.309,2.979-23.682,11.67l-14.16,16.7L59.619-60.5c-7.373-8.691-13.428-11.67-23.584-11.67H21.875c-3.418,0-5.81,2.246-5.81,5.518a5.524,5.524,0,0,0,5.81,5.518H36.426c6.1,0,10.107,2.2,15.527,8.594L66.553-35.3l-14.6,17.188c-5.469,6.4-9.424,8.594-15.527,8.594H21.875A5.553,5.553,0,0,0,16.065-4Z"/>
    </g>
    <g id="Thin-L" transform="translate(774 1556)">
      <path id="Path_16" data-name="Path 16" d="M16.113-4.834A4.344,4.344,0,0,0,20.7-.293H34.668C44.287-.293,50-3.125,57.031-11.426L71.143-28.271,85.4-11.377C92.383-3.076,98.1-.2,107.764-.2H116.6V14.5a3.884,3.884,0,0,0,4.2,4.053,4.934,4.934,0,0,0,3.174-1.172L146.777-.1a4.965,4.965,0,0,0,0-7.959l-22.8-17.383a4.934,4.934,0,0,0-3.174-1.172,3.884,3.884,0,0,0-4.2,4.053V-9.277h-9.229c-6.25,0-10.352-2.295-15.967-8.984L77.051-35.3,91.406-52.295c5.615-6.69,9.717-8.984,15.967-8.984H116.6v13.428a3.848,3.848,0,0,0,4.2,4,4.934,4.934,0,0,0,3.174-1.172l22.8-17.432a4.964,4.964,0,0,0,0-7.959l-22.8-17.383a4.934,4.934,0,0,0-3.174-1.172,3.848,3.848,0,0,0-4.2,4v14.6h-8.838C98.1-70.361,92.383-67.48,85.4-59.18L71.143-42.285,57.031-59.131C50-67.432,44.287-70.264,34.668-70.264H20.7a4.333,4.333,0,0,0-4.59,4.492A4.543,4.543,0,0,0,20.7-61.23h14.4c6.2,0,10.254,2.295,15.918,8.984L65.283-35.3,51.025-18.31C45.361-11.67,41.26-9.326,35.107-9.326H20.7A4.533,4.533,0,0,0,16.113-4.834Z"/>
    </g>
    <g id="Ultralight-L" transform="translate(478.974 1556)">
      <path id="Path_17" data-name="Path 17" d="M16.113-5.225a3.834,3.834,0,0,0,3.955,4H33.936c9.375,0,14.893-2.783,21.729-10.889l14.16-16.943L84.082-12.012C90.918-3.906,96.436-1.123,105.811-1.123h8.2V13.721a3.576,3.576,0,0,0,3.857,3.711,4.579,4.579,0,0,0,2.979-1.074L143.408-.635a4.846,4.846,0,0,0,0-7.813L120.85-25.342a4.58,4.58,0,0,0-2.979-1.074,3.576,3.576,0,0,0-3.857,3.711V-9.18h-8.789c-6.153,0-10.254-2.344-16.016-9.18L75.049-35.254l14.16-16.895c5.762-6.836,9.863-9.229,16.016-9.229h8.789v13.623a3.576,3.576,0,0,0,3.857,3.711,4.645,4.645,0,0,0,2.979-1.123l22.558-16.943a4.894,4.894,0,0,0,0-7.861L120.85-86.816a4.579,4.579,0,0,0-2.979-1.074,3.565,3.565,0,0,0-3.857,3.662v14.844h-8.2c-9.375,0-14.893,2.783-21.729,10.889L69.824-41.5,55.664-58.4C48.828-66.5,43.311-69.287,33.936-69.287H20.068a3.834,3.834,0,0,0-3.955,4,4.045,4.045,0,0,0,3.955,4H34.424c6.2,0,10.352,2.344,16.113,9.18L64.6-35.254l-14.062,16.8c-5.762,6.836-9.863,9.228-16.113,9.228H20.068A4.012,4.012,0,0,0,16.113-5.225Z"/>
    </g>
    <g id="Black-M" transform="translate(2853.1 1126)">
      <path id="Path_18" data-name="Path 18" d="M12.451-4.541a8.961,8.961,0,0,0,8.887,8.936H34.619c9.815,0,16.113-3.32,21.24-9.912l11.67-14.99L78.076-6.885c6.25,8.008,16.26,11.279,26.074,11.279h7.52V14.6c0,4.248,2.637,6.982,6.738,6.982a6.642,6.642,0,0,0,4.639-1.709L145.85.391a6.147,6.147,0,0,0,0-9.57l-22.8-19.434a6.849,6.849,0,0,0-4.639-1.66c-4.1,0-6.738,2.685-6.738,6.934v9.863h-7.324c-7.618,0-12.5-2.49-16.651-7.813l-9.766-12.6L87.988-46.777c4.492-5.859,7.471-7.666,14.7-7.666h8.984v9.473c0,4.3,2.637,6.982,6.738,6.982a6.642,6.642,0,0,0,4.639-1.709l22.8-19.482a6.147,6.147,0,0,0,0-9.57l-22.8-19.434a6.849,6.849,0,0,0-4.639-1.66c-4.1,0-6.738,2.686-6.738,6.934v10.645h-7.324c-11.377,0-19.971,2.783-28.028,13.232L67.383-47.461,55.859-62.354c-5.127-6.592-13.33-9.912-23.145-9.912H21.338a8.919,8.919,0,0,0-8.887,8.887,8.93,8.93,0,0,0,8.887,8.935H29.3c7.715,0,13.818,2.441,17.92,7.764l9.814,12.7L47.217-21.24c-4.1,5.371-8.3,7.764-15.967,7.764H21.338A8.961,8.961,0,0,0,12.451-4.541Z"/>
    </g>
    <g id="Heavy-M" transform="translate(2558.88 1126)">
      <path id="Path_19" data-name="Path 19" d="M12.451-5.859A8.055,8.055,0,0,0,20.605,2.2H33.35c9.521,0,15.527-3.125,20.85-9.814l11.524-14.5L76.367-8.643C82.568-.879,91.406,2.2,100.928,2.2h7.812V12.549c0,3.906,2.442,6.348,6.2,6.348a6.53,6.53,0,0,0,4.346-1.562L141.064-1.123a5.74,5.74,0,0,0,0-8.887L119.287-28.467a6.53,6.53,0,0,0-4.346-1.562c-3.759,0-6.2,2.441-6.2,6.348v9.766h-7.617c-7.031,0-11.475-2.295-15.576-7.471L75.342-34.229l10.4-13.086c4.395-5.518,7.373-7.324,14.111-7.324h8.886v9.57c0,3.858,2.442,6.348,6.2,6.348a6.32,6.32,0,0,0,4.346-1.611l21.777-18.457a5.74,5.74,0,0,0,0-8.887L119.287-86.133a6.53,6.53,0,0,0-4.346-1.562c-3.759,0-6.2,2.441-6.2,6.348v10.6h-7.666C90.332-70.752,82.617-68.018,75-58.4L65.625-46.484,54.2-60.937c-5.322-6.689-12.793-9.814-22.314-9.814H20.605A8.055,8.055,0,0,0,12.451-62.7a8.055,8.055,0,0,0,8.154,8.057h8.789c6.934,0,12.354,2.295,16.406,7.422L56.006-34.326,45.8-21.338c-4.1,5.176-8.008,7.422-14.941,7.422H20.605A8.055,8.055,0,0,0,12.451-5.859Z"/>
    </g>
    <g id="Bold-M" transform="translate(2264.93 1126)">
      <path id="Path_20" data-name="Path 20" d="M12.451-7.373A7.092,7.092,0,0,0,19.775-.244H31.982c9.131,0,14.795-2.881,20.361-9.717L63.672-23.877,74.463-10.644c6.1,7.568,13.672,10.4,22.8,10.4h8.252V10.3a5.217,5.217,0,0,0,5.566,5.615,6.014,6.014,0,0,0,3.955-1.416L135.645-2.881a5.064,5.064,0,0,0,0-8.057L115.039-28.32a6.049,6.049,0,0,0-3.955-1.465c-3.418,0-5.566,2.2-5.566,5.664v9.668H97.51c-6.348,0-10.352-2.051-14.4-7.031L72.461-34.619,83.252-47.852c4.248-5.273,7.275-6.982,13.428-6.982h8.838v9.619c0,3.467,2.148,5.664,5.566,5.664a6.049,6.049,0,0,0,3.955-1.465L135.645-58.35a5.113,5.113,0,0,0,0-8.105L115.039-83.789a6.049,6.049,0,0,0-3.955-1.465,5.217,5.217,0,0,0-5.566,5.615v10.6H97.363c-9.961,0-16.748,2.637-23.828,11.377L63.623-45.459,52.344-59.326c-5.566-6.836-12.207-9.717-21.338-9.717H19.775a7.092,7.092,0,0,0-7.324,7.129,7.082,7.082,0,0,0,7.324,7.08h9.668A17.516,17.516,0,0,1,44.238-47.8L54.932-34.668,44.238-21.484c-4.1,5.029-7.666,7.031-13.867,7.031h-10.6A7.081,7.081,0,0,0,12.451-7.373Z"/>
    </g>
    <g id="Semibold-M" transform="translate(1970.15 1126)">
      <path id="Path_21" data-name="Path 21" d="M12.451-8.4A6.431,6.431,0,0,0,19.19-1.9H31.006c8.887,0,14.307-2.783,20.068-9.668L62.3-25.1,73.1-12.012C79.2-4.639,85.84-1.9,94.775-1.9h8.5V8.74a4.794,4.794,0,0,0,5.127,5.127,5.428,5.428,0,0,0,3.711-1.367L131.982-4.053a4.746,4.746,0,0,0,0-7.52l-19.873-16.65A5.672,5.672,0,0,0,108.4-29.59a4.807,4.807,0,0,0-5.127,5.176v9.57H95.02c-5.859,0-9.57-1.855-13.574-6.738L70.41-34.863,81.494-48.242c4.15-5.029,7.275-6.738,12.988-6.738h8.789v9.717a4.794,4.794,0,0,0,5.127,5.127,5.428,5.428,0,0,0,3.711-1.367l19.873-16.553a4.746,4.746,0,0,0,0-7.52l-19.873-16.65a5.673,5.673,0,0,0-3.711-1.367,4.807,4.807,0,0,0-5.127,5.176v10.547H94.824c-9.424,0-15.576,2.588-22.266,10.742l-10.3,12.4L51.074-58.2c-5.762-6.934-11.816-9.668-20.654-9.668H19.19a6.393,6.393,0,0,0-6.738,6.445,6.46,6.46,0,0,0,6.738,6.494h10.3c5.615,0,9.619,1.855,13.623,6.738L54.15-34.912,43.115-21.582c-4.053,4.883-7.422,6.738-13.037,6.738H19.19A6.45,6.45,0,0,0,12.451-8.4Z"/>
    </g>
    <g id="Medium-M" transform="translate(1674.88 1126)">
      <path id="Path_22" data-name="Path 22" d="M12.451-9.131c0,3.467,2.588,5.908,6.3,5.908H30.273c8.691,0,13.965-2.588,19.873-9.619L61.23-26.025,72.119-13.037c6.055,7.227,12.012,9.863,20.752,9.863h8.691V7.52A4.475,4.475,0,0,0,106.4,12.3a5.631,5.631,0,0,0,3.516-1.269L129.15-4.98a4.416,4.416,0,0,0,0-7.08L109.912-28.125a5.4,5.4,0,0,0-3.516-1.318,4.475,4.475,0,0,0-4.834,4.785v9.57H93.115c-5.517,0-8.935-1.807-12.939-6.543L68.848-35.059,80.225-48.584c4.053-4.834,7.178-6.494,12.6-6.494h8.74v9.717a4.475,4.475,0,0,0,4.834,4.785,5.631,5.631,0,0,0,3.516-1.27L129.15-57.861a4.416,4.416,0,0,0,0-7.08L109.912-81.006a5.4,5.4,0,0,0-3.516-1.318,4.475,4.475,0,0,0-4.834,4.785v10.547H92.92c-9.033,0-14.746,2.539-21.143,10.254L61.23-44.189,50.146-57.324c-5.908-7.031-11.523-9.668-20.215-9.668H18.75c-3.711,0-6.3,2.49-6.3,5.957s2.637,5.957,6.3,5.957H29.492c5.273,0,8.789,1.758,12.793,6.543L53.564-35.107,42.285-21.631c-4.053,4.785-7.227,6.543-12.451,6.543H18.75C15.088-15.088,12.451-12.6,12.451-9.131Z"/>
    </g>
    <g id="Regular-M" transform="translate(1380.04 1126)">
      <path id="Path_23" data-name="Path 23" d="M12.451-10.156c0,3.125,2.295,5.273,5.762,5.273H29.3c8.447,0,13.476-2.441,19.58-9.521L59.814-27.2,70.8-14.4c6.006,7.08,11.084,9.57,19.58,9.57h8.984V6.006a4.014,4.014,0,0,0,4.346,4.3,5.253,5.253,0,0,0,3.32-1.221L125.488-6.152a4.07,4.07,0,0,0,0-6.543L107.031-28.027a5.253,5.253,0,0,0-3.32-1.221,4.014,4.014,0,0,0-4.346,4.3v9.473H90.674c-5.078,0-8.2-1.611-12.158-6.25L66.846-35.352l11.67-13.574c3.955-4.687,7.08-6.3,12.158-6.3h8.691v9.814a4.014,4.014,0,0,0,4.346,4.3,5.253,5.253,0,0,0,3.32-1.221l18.457-15.234a4.07,4.07,0,0,0,0-6.543L107.031-79.443a5.253,5.253,0,0,0-3.32-1.221,4.014,4.014,0,0,0-4.346,4.3V-65.82H90.381c-8.5,0-13.574,2.49-19.58,9.57L59.814-43.457,48.877-56.25c-6.1-7.08-11.133-9.57-19.58-9.57H18.213c-3.467,0-5.762,2.148-5.762,5.322,0,3.125,2.344,5.322,5.762,5.322H29.541c4.687,0,7.666,1.611,11.67,6.25l11.67,13.574L41.211-21.729c-4.053,4.639-7.031,6.25-11.67,6.25H18.213C14.795-15.479,12.451-13.281,12.451-10.156Z"/>
    </g>
    <g id="Light-M" transform="translate(1085.58 1126)">
      <path id="Path_24" data-name="Path 24" d="M12.451-10.742c0,2.734,2,4.639,4.932,4.639H28.369c8.057,0,12.891-2.393,18.7-9.228L58.057-28.174,69.043-15.283c5.811,6.836,10.6,9.229,18.75,9.229h8.154V4.98A3.642,3.642,0,0,0,99.9,8.838a4.618,4.618,0,0,0,2.979-1.123L121.045-6.836a4.007,4.007,0,0,0,0-6.4L102.881-27.881A4.618,4.618,0,0,0,99.9-29,3.654,3.654,0,0,0,95.947-25.1v9.766H87.842c-4.98,0-8.105-1.66-12.256-6.543L64.111-35.3,75.586-48.779c4.15-4.834,7.275-6.494,12.256-6.494h8.106v10.01A3.642,3.642,0,0,0,99.9-41.406a4.618,4.618,0,0,0,2.979-1.123L121.045-57.08a4.056,4.056,0,0,0,0-6.445l-18.164-14.6A4.618,4.618,0,0,0,99.9-79.248a3.642,3.642,0,0,0-3.955,3.857v10.84H87.793c-8.154,0-12.939,2.393-18.75,9.228L58.057-42.432,47.07-55.273C41.26-62.158,36.426-64.5,28.369-64.5H17.383c-2.93,0-4.932,1.855-4.932,4.639a4.613,4.613,0,0,0,4.932,4.59H28.662c4.736,0,7.764,1.709,11.914,6.543L52-35.3,40.576-21.875c-4.15,4.834-7.227,6.543-11.914,6.543H17.383C14.5-15.332,12.451-13.428,12.451-10.742Z"/>
    </g>
    <g id="Thin-M" transform="translate(791.847 1126)">
      <path id="Path_25" data-name="Path 25" d="M12.451-11.475A3.589,3.589,0,0,0,16.26-7.764H27.148c7.568,0,12.061-2.246,17.578-8.74L55.713-29.492,66.7-16.455c5.518,6.494,10.01,8.74,17.627,8.74h7.08V3.613a3.142,3.142,0,0,0,3.418,3.271,3.982,3.982,0,0,0,2.539-.928L115.137-7.764a3.84,3.84,0,0,0,0-6.2L97.363-27.685a3.982,3.982,0,0,0-2.539-.928,3.142,3.142,0,0,0-3.418,3.271v10.205H84.082c-4.834,0-8.008-1.758-12.354-6.885L60.547-35.254,71.729-48.535c4.346-5.078,7.52-6.885,12.354-6.885h7.324v10.351A3.167,3.167,0,0,0,94.824-41.8a3.785,3.785,0,0,0,2.539-.976l17.774-13.721a3.84,3.84,0,0,0,0-6.2L97.363-76.416a3.982,3.982,0,0,0-2.539-.928,3.142,3.142,0,0,0-3.418,3.271v11.231h-7.08c-7.617,0-12.109,2.246-17.627,8.74L55.713-41.016,44.727-54.053c-5.518-6.494-10.01-8.74-17.578-8.74H16.26a3.589,3.589,0,0,0-3.809,3.711,3.7,3.7,0,0,0,3.809,3.711H27.49c4.736,0,7.91,1.807,12.207,6.885L50.83-35.254,39.7-22.07c-4.346,5.078-7.471,6.885-12.207,6.885H16.26A3.7,3.7,0,0,0,12.451-11.475Z"/>
    </g>
    <g id="Ultralight-M" transform="translate(496.65 1126)">
      <path id="Path_26" data-name="Path 26" d="M12.451-11.865a3.154,3.154,0,0,0,3.272,3.271H26.465c7.373,0,11.719-2.2,17.041-8.5L54.492-30.176,65.527-17.041c5.322,6.348,9.668,8.5,17.041,8.5h6.543V2.93a2.846,2.846,0,0,0,3.076,2.979,3.435,3.435,0,0,0,2.344-.879L112.109-8.252a3.8,3.8,0,0,0,0-6.1L94.531-27.588a3.435,3.435,0,0,0-2.344-.879,2.846,2.846,0,0,0-3.076,2.979v10.449H82.178c-4.834,0-8.008-1.855-12.4-7.08L58.74-35.254,69.775-48.389c4.395-5.273,7.568-7.08,12.4-7.08h6.934v10.5a2.846,2.846,0,0,0,3.076,2.979,3.435,3.435,0,0,0,2.344-.879l17.578-13.281a3.8,3.8,0,0,0,0-6.1L94.531-75.488a3.435,3.435,0,0,0-2.344-.879,2.846,2.846,0,0,0-3.076,2.979v11.377H82.568c-7.373,0-11.719,2.2-17.041,8.545L54.492-40.332,43.506-53.418c-5.322-6.348-9.668-8.5-17.041-8.5H15.723a3.154,3.154,0,0,0-3.272,3.271,3.3,3.3,0,0,0,3.272,3.271H26.855c4.785,0,8.008,1.807,12.4,7.031L50.244-35.254,39.258-22.168c-4.395,5.225-7.617,7.031-12.4,7.031H15.723A3.3,3.3,0,0,0,12.451-11.865Z"/>
    </g>
    <g id="Black-S" transform="translate(2870.66 696)">
      <path id="Path_27" data-name="Path 27" d="M9.766-11.279A6.96,6.96,0,0,0,16.7-4.346H27.051c7.666,0,12.6-2.588,16.6-7.764l9.131-11.719,8.3,10.693C65.967-6.885,73.73-4.346,81.4-4.346H87.3V3.662c0,3.32,2.051,5.42,5.273,5.42a5.341,5.341,0,0,0,3.613-1.318L113.965-7.422a4.816,4.816,0,0,0,0-7.471L96.191-30.029a5.341,5.341,0,0,0-3.613-1.318c-3.223,0-5.273,2.1-5.273,5.42v7.715H81.543c-5.908,0-9.717-1.953-12.939-6.1l-7.715-9.912L68.8-44.336c3.516-4.541,5.859-5.957,11.475-5.957H87.3v7.422c0,3.32,2.051,5.42,5.273,5.42a5.341,5.341,0,0,0,3.613-1.318l17.774-15.186a4.816,4.816,0,0,0,0-7.471L96.191-76.562a5.341,5.341,0,0,0-3.613-1.318c-3.223,0-5.273,2.1-5.273,5.42v8.3H81.543c-8.887,0-15.527,2.2-21.826,10.3l-7.031,9.082L43.652-56.4c-4-5.176-10.4-7.764-18.066-7.764H16.7a6.96,6.96,0,0,0-6.934,6.934A6.96,6.96,0,0,0,16.7-50.293H23c5.957,0,10.693,1.9,13.916,6.055l7.715,9.961-7.715,10.01c-3.223,4.2-6.494,6.055-12.451,6.055H16.7A6.96,6.96,0,0,0,9.766-11.279Z"/>
    </g>
    <g id="Heavy-S" transform="translate(2575.58 696)">
      <path id="Path_28" data-name="Path 28" d="M9.766-12.256a6.367,6.367,0,0,0,6.445,6.4h10.01c7.422,0,12.158-2.441,16.357-7.764L51.611-24.9l8.35,10.5C64.844-8.3,71.729-5.859,79.2-5.859h6.25V2.2c0,3.076,1.9,5.029,4.883,5.029a5.224,5.224,0,0,0,3.418-1.27l17.041-14.5a4.44,4.44,0,0,0,0-6.934L93.75-29.932a5.224,5.224,0,0,0-3.418-1.27,4.615,4.615,0,0,0-4.883,4.981V-18.6H79.395c-5.469,0-8.936-1.758-12.109-5.762L59.229-34.473l8.2-10.254c3.369-4.346,5.762-5.713,10.986-5.713h7.031v7.471a4.591,4.591,0,0,0,4.883,4.98,5.194,5.194,0,0,0,3.418-1.221l17.041-14.5a4.44,4.44,0,0,0,0-6.934L93.75-75.146a5.194,5.194,0,0,0-3.418-1.221,4.591,4.591,0,0,0-4.883,4.98v8.252H79.3c-8.4,0-14.4,2.148-20.361,9.668l-7.373,9.326L42.578-55.371c-4.2-5.322-10.059-7.764-17.48-7.764H16.211a6.357,6.357,0,0,0-6.445,6.348,6.326,6.326,0,0,0,6.445,6.348h6.934c5.42,0,9.57,1.758,12.744,5.762l8.057,10.156L35.889-24.365c-3.174,4.053-6.25,5.762-11.621,5.762H16.211A6.357,6.357,0,0,0,9.766-12.256Z"/>
    </g>
    <g id="Bold-S" transform="translate(2280.7 696)">
      <path id="Path_29" data-name="Path 29" d="M9.766-13.281a5.705,5.705,0,0,0,5.908,5.713h9.57c7.227,0,11.719-2.295,16.162-7.715l8.887-10.84,8.4,10.3c4.883,5.957,10.791,8.252,18.066,8.252H83.4V.586a4.18,4.18,0,0,0,4.443,4.541,4.95,4.95,0,0,0,3.174-1.172L107.227-9.766a4.045,4.045,0,0,0,0-6.348L91.016-29.834a4.7,4.7,0,0,0-3.174-1.172A4.167,4.167,0,0,0,83.4-26.514v7.52H77c-4.98,0-8.105-1.611-11.23-5.469l-8.447-10.3,8.545-10.449c3.271-4.053,5.664-5.371,10.5-5.371H83.4v7.52a4.166,4.166,0,0,0,4.443,4.492,4.7,4.7,0,0,0,3.174-1.172l16.211-13.721a4.045,4.045,0,0,0,0-6.348L91.016-73.535a4.95,4.95,0,0,0-3.174-1.172A4.18,4.18,0,0,0,83.4-70.166v8.2H76.807c-7.861,0-13.232,2.051-18.8,8.936l-7.764,9.57L41.406-54.3c-4.443-5.42-9.668-7.666-16.895-7.666H15.674A5.666,5.666,0,0,0,9.766-56.3a5.676,5.676,0,0,0,5.908,5.713h7.617a13.518,13.518,0,0,1,11.475,5.42l8.447,10.352-8.447,10.4c-3.174,3.858-5.957,5.42-10.742,5.42h-8.35A5.676,5.676,0,0,0,9.766-13.281Z"/>
    </g>
    <g id="Semibold-S" transform="translate(1985.26 696)">
      <path id="Path_30" data-name="Path 30" d="M9.766-14.014a5.228,5.228,0,0,0,5.566,5.225h9.277c7.031,0,11.377-2.148,15.967-7.666L49.365-27,57.813-16.8C62.7-10.937,67.92-8.789,75.049-8.789h6.934v8.3a3.871,3.871,0,0,0,4.15,4.15A4.616,4.616,0,0,0,89.16,2.539l15.625-13.184a3.74,3.74,0,0,0,0-5.908L89.16-29.785a4.616,4.616,0,0,0-3.027-1.123,3.909,3.909,0,0,0-4.15,4.2v7.422H75.293c-4.59,0-7.471-1.465-10.547-5.225l-8.74-10.449,8.789-10.547c3.174-3.857,5.615-5.176,10.107-5.176h7.08v7.52a3.885,3.885,0,0,0,4.15,4.2,4.616,4.616,0,0,0,3.027-1.123l15.625-13.184a3.74,3.74,0,0,0,0-5.908L89.16-72.412a4.616,4.616,0,0,0-3.027-1.123,3.871,3.871,0,0,0-4.15,4.15v8.2H75.1c-7.52,0-12.4,2.051-17.676,8.5l-8.057,9.717L40.576-53.516c-4.59-5.518-9.375-7.666-16.455-7.666H15.332a5.237,5.237,0,0,0-5.566,5.273,5.228,5.228,0,0,0,5.566,5.225h8.057c4.394,0,7.471,1.465,10.6,5.225l8.74,10.449-8.74,10.547c-3.125,3.711-5.762,5.176-10.107,5.176H15.332A5.266,5.266,0,0,0,9.766-14.014Z"/>
    </g>
    <g id="Medium-S" transform="translate(1689.52 696)">
      <path id="Path_31" data-name="Path 31" d="M9.766-14.6c0,2.881,2.148,4.932,5.273,4.932h9.033c6.934,0,11.182-2.1,15.918-7.666l8.691-10.3,8.5,10.107c4.834,5.762,9.57,7.861,16.6,7.861h7.129v8.3a3.668,3.668,0,0,0,3.955,3.955,4.761,4.761,0,0,0,2.881-1.074L102.93-11.279a3.528,3.528,0,0,0,0-5.615L87.744-29.736a4.761,4.761,0,0,0-2.881-1.074,3.668,3.668,0,0,0-3.955,3.955v7.324H74.072c-4.346,0-7.031-1.367-10.108-4.98l-8.984-10.6,8.984-10.645c3.174-3.711,5.566-4.98,9.863-4.98h7.08v7.52a3.655,3.655,0,0,0,3.955,3.906,4.712,4.712,0,0,0,2.881-1.025L102.93-53.125a3.529,3.529,0,0,0,0-5.615L87.744-71.582a4.477,4.477,0,0,0-2.881-1.074,3.654,3.654,0,0,0-3.955,3.906V-60.6H73.779c-7.227,0-11.719,2-16.846,8.154l-8.3,9.814L39.99-52.93C35.254-58.5,30.762-60.6,23.828-60.6H15.039c-3.125,0-5.273,2.051-5.273,4.932s2.148,4.932,5.273,4.932h8.447c4.1,0,6.836,1.318,9.912,4.98l8.936,10.6L33.4-24.512c-3.125,3.662-5.615,4.98-9.668,4.98H15.039C11.914-19.531,9.766-17.48,9.766-14.6Z"/>
    </g>
    <g id="Regular-S" transform="translate(1394.06 696)">
      <path id="Path_32" data-name="Path 32" d="M9.766-15.332c0,2.686,1.953,4.492,4.883,4.492h8.789c6.787,0,10.84-2,15.723-7.666l8.594-9.961L56.3-18.506c4.883,5.664,8.936,7.666,15.82,7.666h7.373v8.4a3.36,3.36,0,0,0,3.662,3.564A4.36,4.36,0,0,0,85.889.146l14.6-12.256a3.247,3.247,0,0,0,0-5.225l-14.6-12.354a4.667,4.667,0,0,0-2.734-.977A3.36,3.36,0,0,0,79.492-27.1v7.275h-7.08c-4,0-6.445-1.221-9.473-4.736L53.662-35.3l9.277-10.742c3.027-3.565,5.469-4.785,9.473-4.785h7.08v7.52A3.373,3.373,0,0,0,83.154-39.7a4.412,4.412,0,0,0,2.734-1.025l14.6-12.256a3.2,3.2,0,0,0,0-5.176l-14.6-12.353a4.36,4.36,0,0,0-2.734-.977,3.36,3.36,0,0,0-3.662,3.564v8.105H72.119c-6.885,0-10.938,2-15.82,7.666l-8.545,9.961L39.16-52.148c-4.883-5.664-8.936-7.666-15.723-7.666H14.648c-2.93,0-4.883,1.807-4.883,4.492s1.953,4.492,4.883,4.492h8.936c3.662,0,5.957,1.221,9.033,4.785L41.846-35.3,32.617-24.56c-3.076,3.516-5.42,4.736-9.033,4.736H14.648C11.719-19.824,9.766-17.969,9.766-15.332Z"/>
    </g>
    <g id="Light-S" transform="translate(1099.35 696)">
      <path id="Path_33" data-name="Path 33" d="M9.766-15.82a3.837,3.837,0,0,0,4.15,3.906h8.691c6.445,0,10.3-1.9,14.99-7.373l8.594-10.059,8.594,10.059c4.639,5.469,8.5,7.373,14.99,7.373h6.689v8.545A3.038,3.038,0,0,0,79.736-.146a3.8,3.8,0,0,0,2.441-.928l14.356-11.67a3.156,3.156,0,0,0,0-5.078L82.178-29.541a3.75,3.75,0,0,0-2.441-.879,3,3,0,0,0-3.271,3.174v7.568H69.922c-3.955,0-6.4-1.318-9.57-5.029L51.27-35.3l9.082-10.6c3.174-3.711,5.615-5.029,9.57-5.029h6.543v7.764a3.038,3.038,0,0,0,3.271,3.223,3.8,3.8,0,0,0,2.441-.928l14.356-11.67a3.156,3.156,0,0,0,0-5.078L82.178-69.336a3.8,3.8,0,0,0-2.441-.928,3.038,3.038,0,0,0-3.271,3.223v8.35H69.775c-6.494,0-10.352,1.9-14.99,7.373L46.191-41.26,37.6-51.318c-4.687-5.469-8.545-7.324-14.99-7.324H13.916c-2.49,0-4.15,1.563-4.15,3.857a3.863,3.863,0,0,0,4.15,3.906H22.8c3.711,0,6.055,1.269,9.229,4.98l9.033,10.6-9.033,10.6c-3.223,3.711-5.566,4.98-9.229,4.98H13.916A3.891,3.891,0,0,0,9.766-15.82Z"/>
    </g>
    <g id="Thin-S" transform="translate(805.25 696)">
      <path id="Path_34" data-name="Path 34" d="M9.766-16.455a3.014,3.014,0,0,0,3.223,3.076h8.5c6.055,0,9.619-1.807,14.014-6.934l8.594-10.205,8.643,10.205c4.346,5.176,7.959,6.982,14.014,6.982H72.51v8.789a2.526,2.526,0,0,0,2.734,2.686,3.211,3.211,0,0,0,2.1-.781L91.309-13.525a3.064,3.064,0,0,0,0-4.932L77.344-29.346a3.211,3.211,0,0,0-2.1-.781,2.526,2.526,0,0,0-2.734,2.686v7.91H66.6c-3.809,0-6.3-1.367-9.668-5.322l-8.789-10.4L56.934-45.7c3.369-3.955,5.859-5.322,9.668-5.322H72.51v8.057a2.55,2.55,0,0,0,2.734,2.686,3.21,3.21,0,0,0,2.1-.781L91.309-52a3.016,3.016,0,0,0,0-4.883L77.344-67.822a3.211,3.211,0,0,0-2.1-.781,2.55,2.55,0,0,0-2.734,2.686v8.74H66.748c-6.055,0-9.668,1.758-14.014,6.934l-8.643,10.2L35.5-50.2c-4.395-5.176-7.959-6.982-14.014-6.982h-8.5a3.025,3.025,0,0,0-3.223,3.125,3.1,3.1,0,0,0,3.223,3.076h8.789c3.711,0,6.152,1.367,9.521,5.322l8.74,10.4L31.3-24.9c-3.369,3.955-5.81,5.322-9.521,5.322H12.988A3.109,3.109,0,0,0,9.766-16.455Z"/>
    </g>
    <g id="Ultralight-S" transform="translate(509.906 696)">
      <path id="Path_35" data-name="Path 35" d="M9.766-16.8a2.59,2.59,0,0,0,2.686,2.686h8.5c5.81,0,9.229-1.758,13.477-6.738L43.018-31.1,51.66-20.85c4.248,5.029,7.666,6.738,13.477,6.738h5.322v8.984a2.283,2.283,0,0,0,2.49,2.393,2.95,2.95,0,0,0,1.9-.684L88.672-13.965a2.972,2.972,0,0,0,0-4.785l-13.818-10.5a2.764,2.764,0,0,0-1.9-.733,2.32,2.32,0,0,0-2.49,2.441v8.106H64.893c-3.76,0-6.25-1.416-9.717-5.518l-8.643-10.3,8.643-10.352c3.467-4.053,5.957-5.469,9.717-5.469h5.566v8.2a2.308,2.308,0,0,0,2.49,2.393,2.95,2.95,0,0,0,1.9-.684L88.672-51.709a3.021,3.021,0,0,0,0-4.834l-13.818-10.5a2.95,2.95,0,0,0-1.9-.684,2.283,2.283,0,0,0-2.49,2.393v8.887H65.137c-5.811,0-9.229,1.758-13.477,6.738L43.018-39.4,34.424-49.658c-4.248-4.98-7.666-6.738-13.477-6.738h-8.5a2.59,2.59,0,0,0-2.686,2.686,2.678,2.678,0,0,0,2.686,2.686H21.24c3.711,0,6.2,1.416,9.668,5.469l8.643,10.3L30.908-25c-3.467,4.1-5.957,5.518-9.668,5.518H12.451A2.678,2.678,0,0,0,9.766-16.8Z"/>
    </g>
  </g>
</svg>
