<svg id="arrow.right.off" xmlns="http://www.w3.org/2000/svg" width="3300" height="2200" viewBox="0 0 3300 2200">
  <g id="Notes">
    <rect id="artboard" width="3300" height="2200" fill="#fff"/>
    <line id="Line_5" data-name="Line 5" x2="2773" transform="translate(263 292)" fill="none" stroke="#000" stroke-width="0.5"/>
    <text id="Weight_Scale_Variations" data-name="Weight/Scale Variations" transform="translate(263 322)" font-size="20" font-family="Helvetica-Bold, Helvetica" font-weight="700"><tspan x="0" y="0">Weight/Scale Variations</tspan></text>
    <text id="Ultralight" transform="translate(559.711 322)" font-size="20" font-family="Helvetica"><tspan x="-39.458" y="0">Ultralight</tspan></text>
    <text id="Thin" transform="translate(856.422 322)" font-size="20" font-family="Helvetica"><tspan x="-19.453" y="0">Thin</tspan></text>
    <text id="Light" transform="translate(1153.13 322)" font-size="20" font-family="Helvetica"><tspan x="-21.685" y="0">Light</tspan></text>
    <text id="Regular" transform="translate(1449.84 322)" font-size="20" font-family="Helvetica"><tspan x="-35.02" y="0">Regular</tspan></text>
    <text id="Medium" transform="translate(1746.56 322)" font-size="20" font-family="Helvetica"><tspan x="-35.566" y="0">Medium</tspan></text>
    <text id="Semibold" transform="translate(2043.27 322)" font-size="20" font-family="Helvetica"><tspan x="-41.689" y="0">Semibold</tspan></text>
    <text id="Bold" transform="translate(2339.98 322)" font-size="20" font-family="Helvetica"><tspan x="-20.015" y="0">Bold</tspan></text>
    <text id="Heavy" transform="translate(2636.69 322)" font-size="20" font-family="Helvetica"><tspan x="-28.345" y="0">Heavy</tspan></text>
    <text id="Black" transform="translate(2933.4 322)" font-size="20" font-family="Helvetica"><tspan x="-24.453" y="0">Black</tspan></text>
    <line id="Line_6" data-name="Line 6" x2="2773" transform="translate(263 1903)" fill="none" stroke="#000" stroke-width="0.5"/>
    <g id="Group_6" data-name="Group 6" transform="translate(263 1933)">
      <path id="Path_37" data-name="Path 37" d="M9.248.83a7.949,7.949,0,0,0,7.891-7.881,7.957,7.957,0,0,0-7.9-7.881A7.938,7.938,0,0,0,1.367-7.051,7.947,7.947,0,0,0,9.248.83Zm0-1.484a6.358,6.358,0,0,1-6.377-6.4,6.35,6.35,0,0,1,6.367-6.4,6.383,6.383,0,0,1,6.406,6.4A6.362,6.362,0,0,1,9.248-.654Zm-.02-2.969c.469,0,.742-.312.742-.83V-6.318H12c.5,0,.83-.254.83-.723s-.312-.742-.83-.742H9.971V-9.814c0-.518-.273-.84-.742-.84s-.723.342-.723.84v2.031H6.494c-.518,0-.85.264-.85.742s.352.723.85.723H8.506v1.865C8.506-3.955,8.76-3.623,9.229-3.623Z"/>
    </g>
    <g id="Group_7" data-name="Group 7" transform="translate(281.506 1933)">
      <path id="Path_38" data-name="Path 38" d="M11.709,2.91A10.035,10.035,0,0,0,21.67-7.051,10.037,10.037,0,0,0,11.7-17.012,10.026,10.026,0,0,0,1.748-7.051,10.041,10.041,0,0,0,11.709,2.91Zm0-1.66a8.261,8.261,0,0,1-8.291-8.3,8.252,8.252,0,0,1,8.281-8.3,8.284,8.284,0,0,1,8.311,8.3A8.263,8.263,0,0,1,11.709,1.25ZM11.68-2.666c.527,0,.83-.352.83-.928V-6.23h2.813c.547,0,.928-.283.928-.8a.814.814,0,0,0-.928-.83H12.51v-2.822a.814.814,0,0,0-.83-.928c-.518,0-.8.381-.8.928v2.822h-2.8a.822.822,0,0,0-.937.83c0,.518.391.8.938.8h2.8v2.637C10.879-3.037,11.162-2.666,11.68-2.666Z"/>
    </g>
    <g id="Group_8" data-name="Group 8" transform="translate(304.924 1933)">
      <path id="Path_39" data-name="Path 39" d="M14.971,5.664A12.806,12.806,0,0,0,27.7-7.051,12.817,12.817,0,0,0,14.961-19.775,12.8,12.8,0,0,0,2.256-7.051,12.8,12.8,0,0,0,14.971,5.664Zm0-1.816A10.87,10.87,0,0,1,4.082-7.051a10.855,10.855,0,0,1,10.879-10.9,10.88,10.88,0,0,1,10.908,10.9A10.865,10.865,0,0,1,14.971,3.848Zm-.029-5.234a.889.889,0,0,0,.918-1v-3.75h3.916a.891.891,0,0,0,1.006-.889.893.893,0,0,0-1.006-.918H15.859v-3.926a.893.893,0,0,0-.918-1.006.886.886,0,0,0-.889,1.006v3.926H10.146a.9.9,0,0,0-1.016.918.9.9,0,0,0,1.016.889h3.906v3.75A.883.883,0,0,0,14.941-1.387Z"/>
    </g>
    <text id="Design_Variations" data-name="Design Variations" transform="translate(263 1953)" font-size="20" font-family="Helvetica-Bold, Helvetica" font-weight="700"><tspan x="0" y="0">Design Variations</tspan></text>
    <text id="Symbols_are_supported_in_up_to_nine_weights_and_three_scales." data-name="Symbols are supported in up to nine weights and three scales." transform="translate(263 1971)" font-size="20" font-family="Helvetica"><tspan x="0" y="0">Symbols are supported in up to nine weights and three scales.</tspan></text>
    <text id="For_optimal_layout_with_text_and_other_symbols_vertically_align" data-name="For optimal layout with text and other symbols, vertically align" transform="translate(263 1989)" font-size="20" font-family="Helvetica"><tspan x="0" y="0">For optimal layout with text and other symbols, vertically align</tspan></text>
    <text id="symbols_with_the_adjacent_text." data-name="symbols with the adjacent text." transform="translate(263 2007)" font-size="20" font-family="Helvetica"><tspan x="0" y="0">symbols with the adjacent text.</tspan></text>
    <line id="Line_7" data-name="Line 7" y2="14" transform="translate(776 1919)" fill="none" stroke="#00aeef" stroke-width="0.5"/>
    <g id="Group_9" data-name="Group 9" transform="translate(776 1933)">
      <path id="Path_40" data-name="Path 40" d="M3.311.127a.887.887,0,0,0,.957-.732l1.26-3.457h5.762l1.26,3.457A.884.884,0,0,0,13.5.127a.773.773,0,0,0,.85-.8,1.447,1.447,0,0,0-.107-.527L9.658-13.389a1.225,1.225,0,0,0-1.25-.9,1.212,1.212,0,0,0-1.23.889L2.6-1.191a1.447,1.447,0,0,0-.107.527A.747.747,0,0,0,3.311.127Zm2.7-5.664,2.373-6.572h.049L10.8-5.537Z"/>
    </g>
    <line id="Line_8" data-name="Line 8" y2="14" transform="translate(792.836 1919)" fill="none" stroke="#00aeef" stroke-width="0.5"/>
    <text id="Margins" transform="translate(776 1953)" font-size="20" font-family="Helvetica-Bold, Helvetica" font-weight="700"><tspan x="0" y="0">Margins</tspan></text>
    <text id="Leading_and_trailing_margins_on_the_left_and_right_side_of_each_symbol" data-name="Leading and trailing margins on the left and right side of each symbol" transform="translate(776 1971)" font-size="20" font-family="Helvetica"><tspan x="0" y="0">Leading and trailing margins on the left and right side of each symbol</tspan></text>
    <text id="can_be_adjusted_by_modifying_the_x-location_of_the_margin_guidelines." data-name="can be adjusted by modifying the x-location of the margin guidelines." transform="translate(776 1989)" font-size="20" font-family="Helvetica"><tspan x="0" y="0">can be adjusted by modifying the x-location of the margin guidelines.</tspan></text>
    <text id="Modifications_are_automatically_applied_proportionally_to_all" data-name="Modifications are automatically applied proportionally to all" transform="translate(776 2007)" font-size="20" font-family="Helvetica"><tspan x="0" y="0">Modifications are automatically applied proportionally to all</tspan></text>
    <text id="scales_and_weights." data-name="scales and weights." transform="translate(776 2025)" font-size="20" font-family="Helvetica"><tspan x="0" y="0">scales and weights.</tspan></text>
    <g id="Group_10" data-name="Group 10" transform="translate(1289 1933)">
      <path id="Path_41" data-name="Path 41" d="M2.842,1.865l1.7,1.709c.859.869,1.846.811,2.773-.215L17.49-7.852a1.661,1.661,0,0,0,.85.01l1.065-.2.664.674-.039.557a1.551,1.551,0,0,0,.576,1.357l.762.742a1.038,1.038,0,0,0,1.563.039l2.91-2.92a1.016,1.016,0,0,0-.029-1.543l-.771-.762a1.569,1.569,0,0,0-1.328-.6l-.576.049-.645-.635.244-1.123a1.581,1.581,0,0,0-.615-1.592l-2.2-2.187c-3.34-3.32-7.773-3.242-10.664-.352a1.123,1.123,0,0,0-.215,1.377,1.154,1.154,0,0,0,1.338.43,5.408,5.408,0,0,1,4.414.537l-.586,1.455a1.7,1.7,0,0,0-.1,1.24L3.047-.9C2.061.02,1.982,1,2.842,1.865Zm7.91-17.822a6.056,6.056,0,0,1,7.949.752l2.432,2.412a.708.708,0,0,1,.205.762l-.322,1.484,1.5,1.484.986-.059a.542.542,0,0,1,.527.205l.576.576L22.168-5.9l-.576-.576a.557.557,0,0,1-.215-.537l.068-.977L19.951-9.473l-1.524.254a.641.641,0,0,1-.713-.2l-2-2c-.254-.234-.283-.4-.127-.771l.879-2.09a5.759,5.759,0,0,0-5.625-1.484C10.684-15.723,10.625-15.85,10.752-15.957ZM5.273,2.3,4.1,1.143C3.633.684,3.74.342,4.141-.02L14.951-10.2l1.465,1.484L6.426,2.275C6.074,2.676,5.742,2.773,5.273,2.3Z"/>
    </g>
    <text id="Exporting" transform="translate(1289 1953)" font-size="20" font-family="Helvetica-Bold, Helvetica" font-weight="700"><tspan x="0" y="0">Exporting</tspan></text>
    <text id="Symbols_should_be_outlined_when_exporting_to_ensure_the" data-name="Symbols should be outlined when exporting to ensure the" transform="translate(1289 1971)" font-size="20" font-family="Helvetica"><tspan x="0" y="0">Symbols should be outlined when exporting to ensure the</tspan></text>
    <text id="design_is_preserved_when_submitting_to_Xcode." data-name="design is preserved when submitting to Xcode." transform="translate(1289 1989)" font-size="20" font-family="Helvetica"><tspan x="0" y="0">design is preserved when submitting to Xcode.</tspan></text>
    <text id="template-version" transform="translate(3036 1933)" font-size="20" font-family="Helvetica"><tspan x="-128.594" y="0">Template v.2.0</tspan></text>
    <text id="Requires_Xcode_12_or_greater" data-name="Requires Xcode 12 or greater" transform="translate(3036 1951)" font-size="20" font-family="Helvetica"><tspan x="-262.373" y="0">Requires Xcode 12 or greater</tspan></text>
    <text id="Generated_from_arrow.right" data-name="Generated from arrow.right" transform="translate(3036 1969)" font-size="20" font-family="Helvetica"><tspan x="-239.004" y="0">Generated from arrow.right</tspan></text>
    <text id="Typeset_at_100_points" data-name="Typeset at 100 points" transform="translate(3036 1987)" font-size="20" font-family="Helvetica"><tspan x="-190.137" y="0">Typeset at 100 points</tspan></text>
    <text id="Small" transform="translate(263 726)" font-size="20" font-family="Helvetica"><tspan x="0" y="0">Small</tspan></text>
    <text id="Medium-2" data-name="Medium" transform="translate(263 1156)" font-size="20" font-family="Helvetica"><tspan x="0" y="0">Medium</tspan></text>
    <text id="Large" transform="translate(263 1586)" font-size="20" font-family="Helvetica"><tspan x="0" y="0">Large</tspan></text>
  </g>
  <g id="Guides">
    <g id="H-reference" transform="translate(339 696)">
      <path id="Path_42" data-name="Path 42" d="M.977,0H3.662l9.326-24.463H45.752L55.127,0h2.637L30.615-70.459h-2.49ZM29.346-67.139h.1l15.43,40.43H13.867Z" fill="#27aae1"/>
    </g>
    <line id="Baseline-S" x2="2773" transform="translate(263 696)" fill="none" stroke="#27aae1" stroke-width="0.5"/>
    <line id="Capline-S" x2="2773" transform="translate(263 625.541)" fill="none" stroke="#27aae1" stroke-width="0.5"/>
    <g id="H-reference-2" data-name="H-reference" transform="translate(339 1126)">
      <path id="Path_43" data-name="Path 43" d="M.977,0H3.662l9.326-24.463H45.752L55.127,0h2.637L30.615-70.459h-2.49ZM29.346-67.139h.1l15.43,40.43H13.867Z" fill="#27aae1"/>
    </g>
    <line id="Baseline-M" x2="2773" transform="translate(263 1126)" fill="none" stroke="#27aae1" stroke-width="0.5"/>
    <line id="Capline-M" x2="2773" transform="translate(263 1055.54)" fill="none" stroke="#27aae1" stroke-width="0.5"/>
    <g id="H-reference-3" data-name="H-reference" transform="translate(339 1556)">
      <path id="Path_44" data-name="Path 44" d="M.977,0H3.662l9.326-24.463H45.752L55.127,0h2.637L30.615-70.459h-2.49ZM29.346-67.139h.1l15.43,40.43H13.867Z" fill="#27aae1"/>
    </g>
    <line id="Baseline-L" x2="2773" transform="translate(263 1556)" fill="none" stroke="#27aae1" stroke-width="0.5"/>
    <line id="Capline-L" x2="2773" transform="translate(263 1485.54)" fill="none" stroke="#27aae1" stroke-width="0.5"/>
  </g>
  <g id="Symbols">
    <g id="Black-L" transform="translate(2854.32 1556)">
      <path id="Path_45" data-name="Path 45" d="M142.09-35.547a12.32,12.32,0,0,0-3.418-8.4L98.193-84.375a11.307,11.307,0,0,0-7.861-3.564c-6.787,0-11.279,4.639-11.279,10.791a10.909,10.909,0,0,0,3.711,8.154l13.33,13.281L106.3-46.289l-13.037-.684H28.076c-7.227,0-12.012,4.541-12.012,11.426,0,6.836,4.785,11.426,12.012,11.426H93.262L106.3-24.8,96.094-15.43,82.764-2.2a11.017,11.017,0,0,0-3.711,8.2c0,6.1,4.492,10.742,11.279,10.742a11.452,11.452,0,0,0,7.861-3.516l40.479-40.381A12.414,12.414,0,0,0,142.09-35.547Z"/>
    </g>
    <g id="Heavy-L" transform="translate(2558.69 1556)">
      <path id="Path_46" data-name="Path 46" d="M139.941-35.5a10.317,10.317,0,0,0-2.978-7.227l-40.82-40.82a9.809,9.809,0,0,0-6.885-3.125c-5.81,0-9.717,4-9.717,9.326a9.584,9.584,0,0,0,3.125,7.031L96.875-56.055l12.4,11.426L95.85-45.361H26.318c-6.152,0-10.254,3.955-10.254,9.863s4.1,9.863,10.254,9.863H95.85l13.476-.732L96.875-14.941,82.666-.732A9.668,9.668,0,0,0,79.541,6.3c0,5.322,3.906,9.326,9.717,9.326A9.9,9.9,0,0,0,96.094,12.6l40.869-40.82A10.433,10.433,0,0,0,139.941-35.5Z"/>
    </g>
    <g id="Bold-L" transform="translate(2263.17 1556)">
      <path id="Path_47" data-name="Path 47" d="M137.549-35.4a8.673,8.673,0,0,0-2.49-6.006L93.848-82.617a8.356,8.356,0,0,0-5.811-2.637,7.583,7.583,0,0,0-7.959,7.715,7.982,7.982,0,0,0,2.49,5.762L97.8-56.445l14.892,13.672L98.73-43.506H24.414c-4.981,0-8.35,3.271-8.35,8.106,0,4.785,3.369,8.057,8.35,8.057H98.73l13.965-.732L97.8-14.356,82.568.928a7.982,7.982,0,0,0-2.49,5.762A7.583,7.583,0,0,0,88.037,14.4,8.145,8.145,0,0,0,93.7,11.865l41.358-41.309A8.47,8.47,0,0,0,137.549-35.4Z"/>
    </g>
    <g id="Semibold-L" transform="translate(1967.27 1556)">
      <path id="Path_48" data-name="Path 48" d="M135.938-35.352a6.948,6.948,0,0,0-2.2-5.078l-41.455-41.5a7.093,7.093,0,0,0-5.078-2.344,6.453,6.453,0,0,0-6.738,6.592A6.7,6.7,0,0,0,82.52-72.8L98.438-56.738,114.99-41.455l-14.258-.781H23.1a6.627,6.627,0,0,0-7.031,6.885c0,4.053,2.832,6.836,7.031,6.836h77.636l14.307-.732-16.6,15.283L82.52,2.051a6.7,6.7,0,0,0-2.051,4.883,6.453,6.453,0,0,0,6.738,6.592,6.962,6.962,0,0,0,4.883-2.148l41.65-41.65A7.03,7.03,0,0,0,135.938-35.352Z"/>
    </g>
    <g id="Medium-L" transform="translate(1671.16 1556)">
      <path id="Path_49" data-name="Path 49" d="M134.717-35.3a6.311,6.311,0,0,0-1.953-4.443l-41.7-41.7A6.123,6.123,0,0,0,86.621-83.5a5.607,5.607,0,0,0-5.859,5.713,6.061,6.061,0,0,0,1.709,4.248L98.926-56.982l17.822,16.5-14.5-.781H22.07A5.73,5.73,0,0,0,16.065-35.3a5.718,5.718,0,0,0,6.006,5.908h80.176l14.551-.781-17.871,16.5L82.471,2.881a5.976,5.976,0,0,0-1.709,4.248,5.607,5.607,0,0,0,5.859,5.713,5.986,5.986,0,0,0,4.248-1.855l41.895-41.894A6.2,6.2,0,0,0,134.717-35.3Z"/>
    </g>
    <g id="Regular-L" transform="translate(1375.28 1556)">
      <path id="Subtraction_1" data-name="Subtraction 1" d="M-7336.28-6068a29.815,29.815,0,0,1-11.677-2.357,29.9,29.9,0,0,1-9.536-6.43,29.9,29.9,0,0,1-6.43-9.536A29.815,29.815,0,0,1-7366.28-6098v-91a29.819,29.819,0,0,1,2.357-11.678,29.906,29.906,0,0,1,6.43-9.536,29.888,29.888,0,0,1,9.536-6.43A29.811,29.811,0,0,1-7336.28-6219h5v151h-5Z" transform="translate(7335 6108)"/>
      <path id="Union_2" data-name="Union 2" d="M25.641,1.465,2.106,20.6a5.19,5.19,0,0,0,0,8.349l23.534,19.19a6.531,6.531,0,0,0,4,1.465c3.272,0,5.321-2,5.321-5.177V31.5c13.433-.084,59.459.065,60.684.065h14.6c4.053,0,6.738-2.588,6.738-6.3,0-3.662-2.784-6.3-6.738-6.3H95.65s-47.071.011-60.684,0V5.175C34.967,2,32.918,0,29.646,0A6.518,6.518,0,0,0,25.641,1.465Z" transform="translate(133.048 -10.067) rotate(180)"/>
    </g>
    <g id="Light-L" transform="translate(1078.57 1556)">
      <path id="Path_51" data-name="Path 51" d="M133.057-35.254a3.489,3.489,0,0,0-1.172-2.637L89.6-80.371a4,4,0,0,0-2.979-1.465,3.4,3.4,0,0,0-3.564,3.418,3.571,3.571,0,0,0,.977,2.588l21.24,21.387L122.51-38.232,108.2-38.818H19.58a3.425,3.425,0,0,0-3.516,3.565,3.412,3.412,0,0,0,3.516,3.516H108.2l14.356-.586-17.286,16.26L84.033,5.322a3.5,3.5,0,0,0-.977,2.539,3.442,3.442,0,0,0,3.564,3.467,3.383,3.383,0,0,0,2.539-1.123l42.725-42.822A3.644,3.644,0,0,0,133.057-35.254Z"/>
    </g>
    <g id="Thin-L" transform="translate(781.862 1556)">
      <path id="Path_52" data-name="Path 52" d="M133.057-35.254a1.929,1.929,0,0,0-.635-1.465L89.795-79.736c-.977-1.025-1.514-1.221-2.1-1.221A1.953,1.953,0,0,0,85.645-79a1.95,1.95,0,0,0,.537,1.465l26.709,26.758,14.16,13.818-13.526-.244H18.018a1.928,1.928,0,0,0-1.953,1.953A1.928,1.928,0,0,0,18.018-33.3h95.507l13.526-.244-14.16,13.818L86.182,6.982A2.463,2.463,0,0,0,85.645,8.5a2.04,2.04,0,0,0,3.467,1.318l43.311-43.652A1.761,1.761,0,0,0,133.057-35.254Z"/>
    </g>
    <g id="Ultralight-L" transform="translate(485.151 1556)">
      <path id="Path_53" data-name="Path 53" d="M133.057-35.254a1.007,1.007,0,0,0-.342-.83L89.844-79.443c-.83-.928-1.221-1.025-1.611-1.025a1.131,1.131,0,0,0-1.221,1.123,1.18,1.18,0,0,0,.293.977L116.8-48.926l12.5,12.549-13.086-.049H17.188a1.179,1.179,0,0,0-1.123,1.172,1.169,1.169,0,0,0,1.123,1.123h99.023L129.3-34.18,116.8-21.631,87.3,7.861a1.243,1.243,0,0,0-.293.928,1.168,1.168,0,0,0,1.221,1.172,1.043,1.043,0,0,0,.83-.391l43.652-43.994A1.072,1.072,0,0,0,133.057-35.254Z"/>
    </g>
    <g id="Black-M" transform="translate(2870.68 1126)">
      <path id="Path_54" data-name="Path 54" d="M112.988-35.6a11.429,11.429,0,0,0-2.978-7.568L78.955-74.219a10.275,10.275,0,0,0-7.08-3.223c-6.25,0-10.205,4.248-10.205,9.717A9.872,9.872,0,0,0,65.137-60.3L76.416-49.121l3.906,3.613-9.375-.439H23.438c-6.641,0-10.986,4.1-10.986,10.352S16.8-25.244,23.438-25.244h47.51l9.375-.439-3.906,3.662L65.137-10.937A9.953,9.953,0,0,0,61.67-3.516C61.67,2,65.625,6.2,71.875,6.2a10.275,10.275,0,0,0,7.08-3.223L110.01-28.027A11.332,11.332,0,0,0,112.988-35.6Z"/>
    </g>
    <g id="Heavy-M" transform="translate(2575.14 1126)">
      <path id="Path_55" data-name="Path 55" d="M110.645-35.5a9.714,9.714,0,0,0-2.588-6.543l-31.4-31.4a9,9,0,0,0-6.152-2.783c-5.371,0-8.838,3.662-8.838,8.4a8.816,8.816,0,0,0,2.93,6.445L75.83-50.244l6.787,6.3-9.912-.488H21.875c-5.664,0-9.424,3.565-9.424,8.936s3.76,8.936,9.424,8.936h50.83l9.912-.488-6.787,6.3L64.6-9.668a8.732,8.732,0,0,0-2.93,6.445c0,4.736,3.467,8.4,8.838,8.4a8.8,8.8,0,0,0,6.1-2.783l31.446-31.348A9.714,9.714,0,0,0,110.645-35.5Z"/>
    </g>
    <g id="Bold-M" transform="translate(2279.72 1126)">
      <path id="Path_56" data-name="Path 56" d="M108.057-35.4a7.81,7.81,0,0,0-2.246-5.42L74.121-72.51a7.412,7.412,0,0,0-5.176-2.344c-4.346,0-7.226,2.979-7.226,6.934a7.084,7.084,0,0,0,2.295,5.273L75.146-51.514l10.059,9.326-10.5-.586H20.117c-4.59,0-7.666,2.979-7.666,7.373s3.076,7.324,7.666,7.324h54.59l10.547-.537L75.146-19.336,64.014-8.252a7.441,7.441,0,0,0-2.295,5.273A6.836,6.836,0,0,0,68.945,4a7.448,7.448,0,0,0,5.127-2.295l31.739-31.738A7.784,7.784,0,0,0,108.057-35.4Z"/>
    </g>
    <g id="Semibold-M" transform="translate(1983.92 1126)">
      <path id="Path_57" data-name="Path 57" d="M106.25-35.352A6.581,6.581,0,0,0,104.3-39.99L72.363-71.924a6.3,6.3,0,0,0-4.492-2,5.878,5.878,0,0,0-6.152,5.957,6.339,6.339,0,0,0,1.9,4.492L74.707-52.344,87.061-41.016,76.074-41.6H18.9c-3.857,0-6.445,2.539-6.445,6.25S15.039-29.1,18.9-29.1H76.074l10.986-.635L74.707-18.359,63.623-7.275a6.34,6.34,0,0,0-1.9,4.492,5.85,5.85,0,0,0,6.152,5.957,6.144,6.144,0,0,0,4.395-1.953L104.3-30.713A6.669,6.669,0,0,0,106.25-35.352Z"/>
    </g>
    <g id="Medium-M" transform="translate(1687.89 1126)">
      <path id="Path_58" data-name="Path 58" d="M104.883-35.3a5.624,5.624,0,0,0-1.758-4.053l-32.08-32.08a5.6,5.6,0,0,0-3.955-1.758,5.107,5.107,0,0,0-5.371,5.176A5.376,5.376,0,0,0,63.33-64.16L74.316-53.027l14.16,12.939-11.328-.684H17.969A5.242,5.242,0,0,0,12.451-35.3a5.23,5.23,0,0,0,5.518,5.42h59.18l11.328-.684L74.316-17.627,63.33-6.494a5.376,5.376,0,0,0-1.611,3.857A5.107,5.107,0,0,0,67.09,2.539,5.5,5.5,0,0,0,70.947.879L103.125-31.3A5.6,5.6,0,0,0,104.883-35.3Z"/>
    </g>
    <g id="Regular-M" transform="translate(1392.06 1126)">
      <path id="Path_59" data-name="Path 59" d="M103.125-35.254a4.421,4.421,0,0,0-1.465-3.271L69.287-70.8a4.368,4.368,0,0,0-3.271-1.465,4.12,4.12,0,0,0-4.248,4.2,4.317,4.317,0,0,0,1.172,3.076L73.877-53.857l16.406,14.99L78.516-39.6H16.748a4.14,4.14,0,0,0-4.3,4.346,4.14,4.14,0,0,0,4.3,4.346H78.516l11.816-.732L73.877-16.65,62.939-5.518a4.237,4.237,0,0,0-1.172,3.076,4.12,4.12,0,0,0,4.248,4.2A4.451,4.451,0,0,0,69.189.391L101.66-31.982A4.421,4.421,0,0,0,103.125-35.254Z"/>
    </g>
    <g id="Light-M" transform="translate(1095.35 1126)">
      <path id="Path_60" data-name="Path 60" d="M103.125-35.254A3.281,3.281,0,0,0,102-37.7L69.385-70.41a3.615,3.615,0,0,0-2.637-1.27,3.119,3.119,0,0,0-3.223,3.174,3.447,3.447,0,0,0,.879,2.393L79-51.367l14.4,13.379L82.08-38.525H15.674a3.143,3.143,0,0,0-3.223,3.271,3.143,3.143,0,0,0,3.223,3.271H82.08l11.377-.537L79-19.141,64.4-4.395a3.327,3.327,0,0,0-.879,2.344,3.119,3.119,0,0,0,3.223,3.174A3.359,3.359,0,0,0,69.141.146L102-32.812A3.281,3.281,0,0,0,103.125-35.254Z"/>
    </g>
    <g id="Thin-M" transform="translate(798.634 1126)">
      <path id="Path_61" data-name="Path 61" d="M103.125-35.254a1.846,1.846,0,0,0-.586-1.367L69.531-69.873a2.465,2.465,0,0,0-1.807-.977,1.826,1.826,0,0,0-1.9,1.807,2.086,2.086,0,0,0,.488,1.416L85.84-48.1l11.621,11.23-10.645-.244H14.307a1.824,1.824,0,0,0-1.855,1.856A1.824,1.824,0,0,0,14.307-33.4h72.51l10.693-.293L85.84-22.412,66.309-2.881a2.021,2.021,0,0,0-.488,1.367,1.836,1.836,0,0,0,1.9,1.855,1.928,1.928,0,0,0,1.367-.586l33.447-33.643A1.846,1.846,0,0,0,103.125-35.254Z"/>
    </g>
    <g id="Ultralight-M" transform="translate(501.923 1126)">
      <path id="Path_62" data-name="Path 62" d="M103.125-35.254a1.072,1.072,0,0,0-.342-.83L69.629-69.58c-.684-.732-1.074-.879-1.416-.879a1.117,1.117,0,0,0-1.172,1.123,1.188,1.188,0,0,0,.293.928L89.355-46.387,99.512-36.279l-10.254-.1H13.574a1.136,1.136,0,0,0-1.123,1.123,1.136,1.136,0,0,0,1.123,1.123H89.258l10.254-.1L89.355-24.121,67.334-2.1a1.274,1.274,0,0,0-.293.879A1.117,1.117,0,0,0,68.213-.1a1.071,1.071,0,0,0,.83-.342l33.74-33.984A1.072,1.072,0,0,0,103.125-35.254Z"/>
    </g>
    <g id="Black-S" transform="translate(2884.35 696)">
      <path id="Path_63" data-name="Path 63" d="M88.33-35.5a8.759,8.759,0,0,0-2.295-5.859L61.67-65.723a7.95,7.95,0,0,0-5.469-2.49c-4.834,0-7.91,3.271-7.91,7.519a7.71,7.71,0,0,0,2.686,5.762l8.789,8.691,3.32,3.076-7.422-.342h-37.4c-5.127,0-8.5,3.174-8.5,8.008s3.369,8.008,8.5,8.008h37.4l7.422-.342-3.32,3.076-8.789,8.643a7.71,7.71,0,0,0-2.686,5.762c0,4.248,3.076,7.52,7.91,7.52a7.95,7.95,0,0,0,5.469-2.49L86.035-29.639A8.759,8.759,0,0,0,88.33-35.5Z"/>
    </g>
    <g id="Heavy-S" transform="translate(2588.52 696)">
      <path id="Path_64" data-name="Path 64" d="M86.572-35.449a7.613,7.613,0,0,0-2.1-5.176L59.912-65.137a6.8,6.8,0,0,0-4.834-2.2c-4.2,0-6.982,2.881-6.982,6.641a6.669,6.669,0,0,0,2.344,5.029l8.3,8.3,5.713,5.273-7.813-.391H17.188c-4.492,0-7.422,2.783-7.422,7.031s2.93,7.031,7.422,7.031H56.641l7.813-.391L58.74-23.486l-8.3,8.2A6.948,6.948,0,0,0,48.1-10.205c0,3.76,2.783,6.641,6.982,6.641a7,7,0,0,0,4.834-2.2L84.473-30.273A7.521,7.521,0,0,0,86.572-35.449Z"/>
    </g>
    <g id="Bold-S" transform="translate(2292.81 696)">
      <path id="Path_65" data-name="Path 65" d="M84.57-35.4a6.376,6.376,0,0,0-1.807-4.395L57.959-64.5a5.926,5.926,0,0,0-4.15-1.9A5.582,5.582,0,0,0,47.9-60.742a5.888,5.888,0,0,0,1.9,4.3l7.764,7.813,8.5,7.764-8.35-.488H15.967c-3.711,0-6.2,2.393-6.2,5.957s2.49,6.006,6.2,6.006H57.715l8.35-.488-8.5,7.764L49.8-14.307a5.779,5.779,0,0,0-1.9,4.248,5.582,5.582,0,0,0,5.908,5.664,6.068,6.068,0,0,0,4.15-1.855l24.8-24.707A6.4,6.4,0,0,0,84.57-35.4Z"/>
    </g>
    <g id="Semibold-S" transform="translate(1996.78 696)">
      <path id="Path_66" data-name="Path 66" d="M83.2-35.352a5.567,5.567,0,0,0-1.66-3.857l-24.9-24.854a5.35,5.35,0,0,0-3.711-1.66,4.929,4.929,0,0,0-5.176,4.981,5.041,5.041,0,0,0,1.611,3.711l7.422,7.52,10.4,9.473L58.5-40.576H15.137a5.038,5.038,0,0,0-5.371,5.225,5.05,5.05,0,0,0,5.371,5.274H58.5l8.74-.586L56.787-21.143l-7.422,7.471a5.123,5.123,0,0,0-1.611,3.711A4.9,4.9,0,0,0,52.93-4.98a5.3,5.3,0,0,0,3.662-1.611L81.543-31.445A5.682,5.682,0,0,0,83.2-35.352Z"/>
    </g>
    <g id="Medium-S" transform="translate(1700.58 696)">
      <path id="Path_67" data-name="Path 67" d="M82.178-35.3a4.868,4.868,0,0,0-1.562-3.467l-25-25a4.972,4.972,0,0,0-3.369-1.465,4.415,4.415,0,0,0-4.59,4.492,4.771,4.771,0,0,0,1.367,3.32L56.2-50.146,68.066-39.355l-9.033-.586H14.5A4.46,4.46,0,0,0,9.766-35.3,4.5,4.5,0,0,0,14.5-30.615H59.033l9.082-.635L56.2-20.41l-7.178,7.227a4.771,4.771,0,0,0-1.367,3.32,4.415,4.415,0,0,0,4.59,4.492,4.775,4.775,0,0,0,3.32-1.465l25.049-25A4.868,4.868,0,0,0,82.178-35.3Z"/>
    </g>
    <g id="Regular-S" transform="translate(1404.56 696)">
      <path id="Path_68" data-name="Path 68" d="M80.811-35.254a4.037,4.037,0,0,0-1.367-2.93L54.248-63.33a4.119,4.119,0,0,0-2.881-1.221,3.723,3.723,0,0,0-3.809,3.809,3.717,3.717,0,0,0,1.074,2.734l6.738,6.982,13.867,12.5-9.473-.684H13.672a3.782,3.782,0,0,0-3.906,3.955A3.782,3.782,0,0,0,13.672-31.3H59.766l9.522-.684-13.916,12.5L48.633-12.5a3.717,3.717,0,0,0-1.074,2.734,3.723,3.723,0,0,0,3.809,3.809,4.119,4.119,0,0,0,2.881-1.221l25.2-25.146A4.037,4.037,0,0,0,80.811-35.254Z"/>
    </g>
    <g id="Light-S" transform="translate(1107.85 696)">
      <path id="Path_69" data-name="Path 69" d="M80.811-35.254A3.02,3.02,0,0,0,79.785-37.5L54.346-62.939a3.131,3.131,0,0,0-2.295-1.074,2.878,2.878,0,0,0-2.979,2.881,3.027,3.027,0,0,0,.83,2.148L59.961-48.828,72.021-37.744l-9.082-.488H12.7a2.833,2.833,0,0,0-2.93,2.979,2.833,2.833,0,0,0,2.93,2.979H62.939l9.082-.488L59.961-21.68,49.9-11.523a3.027,3.027,0,0,0-.83,2.148,2.878,2.878,0,0,0,2.979,2.881A3.047,3.047,0,0,0,54.2-7.422L79.785-33.008A3.02,3.02,0,0,0,80.811-35.254Z"/>
    </g>
    <g id="Thin-S" transform="translate(811.134 696)">
      <path id="Path_70" data-name="Path 70" d="M80.811-35.254a1.644,1.644,0,0,0-.586-1.27L54.443-62.451a1.987,1.987,0,0,0-1.562-.83,1.671,1.671,0,0,0-1.758,1.66,1.656,1.656,0,0,0,.488,1.27l14.355,14.4,9.668,9.229-8.5-.244H11.475a1.641,1.641,0,0,0-1.709,1.709,1.641,1.641,0,0,0,1.709,1.709H67.139l8.5-.244L65.967-24.56l-14.355,14.4a1.857,1.857,0,0,0-.488,1.269,1.671,1.671,0,0,0,1.758,1.66,1.665,1.665,0,0,0,1.269-.537L80.225-33.984A1.644,1.644,0,0,0,80.811-35.254Z"/>
    </g>
    <g id="Ultralight-S" transform="translate(514.423 696)">
      <path id="Path_71" data-name="Path 71" d="M80.811-35.254a.911.911,0,0,0-.342-.781L54.541-62.207c-.586-.586-.879-.732-1.221-.732A1.065,1.065,0,0,0,52.2-61.865a.976.976,0,0,0,.293.83l16.553,16.6,8.4,8.2-8.154-.1H10.84a1.053,1.053,0,0,0-1.074,1.074A1.053,1.053,0,0,0,10.84-34.18H69.287l8.154-.1-8.4,8.2L52.49-9.473a1.074,1.074,0,0,0-.293.83A1.065,1.065,0,0,0,53.32-7.568,1.152,1.152,0,0,0,54.1-7.91L80.469-34.473A.91.91,0,0,0,80.811-35.254Z"/>
    </g>
  </g>
</svg>
